<svg width="375.000000" height="72.000000" viewBox="0 0 375 72" fill="none" xmlns="http://www.w3.org/2000/svg" xmlns:xlink="http://www.w3.org/1999/xlink">
	<desc>
			Created with Pixso.
	</desc>
	<defs>
		<clipPath id="clip0_654">
			<rect id="Group 7" width="375.000000" height="72.000000" fill="white" fill-opacity="0"/>
		</clipPath>
		<linearGradient id="paint_linear_0_656_0" x1="0.000000" y1="0.000000" x2="0.000000" y2="72.000000" gradientUnits="userSpaceOnUse">
			<stop stop-color="#FEFCF7" stop-opacity="0.000000"/>
			<stop offset="1.000000" stop-color="#FEFCF7"/>
		</linearGradient>
	</defs>
	<rect id="Group 7" width="375.000000" height="72.000000" fill="#FFFFFF" fill-opacity="0"/>
	<g clip-path="url(#clip0_654)">
		<path id="our collection" d="M56.788 30.58C59.0546 30.58 61.0346 31.0133 62.728 31.88C64.4213 32.7333 65.7346 33.9333 66.668 35.48C67.6146 37.0267 68.088 38.8267 68.088 40.88C68.088 42.7733 67.5946 44.4867 66.608 46.02C65.6213 47.5533 64.2546 48.7733 62.508 49.68C60.7746 50.5733 58.7613 51.02 56.468 51.02C54.2013 51.02 52.2213 50.5867 50.528 49.72C48.8346 48.84 47.5146 47.6267 46.568 46.08C45.6346 44.5333 45.168 42.7467 45.168 40.72C45.168 38.7867 45.6613 37.06 46.648 35.54C47.6346 34.0067 48.9946 32.8 50.728 31.92C52.4746 31.0267 54.4946 30.58 56.788 30.58ZM58.248 48.12C58.7546 48 59.1413 47.6467 59.408 47.06C59.6746 46.4733 59.7946 45.62 59.768 44.5C59.7413 43.38 59.5413 41.96 59.168 40.24C58.8213 38.5867 58.428 37.24 57.988 36.2C57.5613 35.16 57.0946 34.4133 56.588 33.96C56.0813 33.5067 55.5546 33.3467 55.008 33.48C54.5013 33.6 54.1146 33.9533 53.848 34.54C53.5813 35.1267 53.4613 35.98 53.488 37.1C53.528 38.2067 53.728 39.6267 54.088 41.36C54.4346 43 54.828 44.3467 55.268 45.4C55.708 46.44 56.1746 47.1867 56.668 47.64C57.1746 48.08 57.7013 48.24 58.248 48.12ZM84.9098 46.36L84.9098 46.1L84.6098 46.1L84.6098 36.86C84.6098 36.4333 84.5498 36.1333 84.4298 35.96C84.3232 35.7733 84.1565 35.6467 83.9298 35.58L83.4898 35.44C83.2098 35.3467 83.0032 35.2133 82.8698 35.04C82.7498 34.8667 82.6898 34.6467 82.6898 34.38C82.6898 34.06 82.7765 33.8067 82.9498 33.62C83.1232 33.4333 83.4498 33.2467 83.9298 33.06L88.3698 31.34C89.0498 31.0733 89.5965 30.88 90.0098 30.76C90.4365 30.64 90.8498 30.58 91.2498 30.58C91.8498 30.58 92.3032 30.7533 92.6098 31.1C92.9298 31.4333 93.0898 31.86 93.0898 32.38L93.0898 46.26C93.0898 46.7933 93.1298 47.1733 93.2098 47.4C93.2898 47.6133 93.4298 47.7667 93.6298 47.86L94.0698 48.06C94.3765 48.1933 94.5965 48.36 94.7298 48.56C94.8632 48.76 94.9298 48.9933 94.9298 49.26C94.9298 49.6333 94.8098 49.9267 94.5698 50.14C94.3298 50.3533 93.9432 50.46 93.4098 50.46L88.5098 50.46C87.5632 50.46 86.7232 50.0533 85.9898 49.24C85.2698 48.4267 84.9098 47.4667 84.9098 46.36ZM71.6898 44.62L71.6898 36.86C71.6898 36.4333 71.6298 36.1333 71.5098 35.96C71.4032 35.7733 71.2365 35.6467 71.0098 35.58L70.5698 35.44C70.2898 35.3467 70.0832 35.2133 69.9498 35.04C69.8298 34.8667 69.7698 34.6467 69.7698 34.38C69.7698 34.06 69.8565 33.8067 70.0298 33.62C70.2032 33.4333 70.5298 33.2467 71.0098 33.06L75.4498 31.34C76.1698 31.06 76.7365 30.8667 77.1498 30.76C77.5632 30.64 77.9298 30.58 78.2498 30.58C78.8898 30.58 79.3698 30.7533 79.6898 31.1C80.0098 31.4333 80.1698 31.86 80.1698 32.38L80.1698 43.42C80.1698 44.2733 80.3632 44.9133 80.7498 45.34C81.1498 45.7667 81.7032 45.98 82.4098 45.98C82.8498 45.98 83.3098 45.8933 83.7898 45.72C84.2698 45.5467 84.6965 45.2933 85.0698 44.96L85.7698 44.34L86.9698 45.62L86.3698 46.18C84.4898 47.98 82.8565 49.24 81.4698 49.96C80.0832 50.6667 78.8098 51.02 77.6498 51.02C75.8765 51.02 74.4365 50.4267 73.3298 49.24C72.2365 48.0533 71.6898 46.5133 71.6898 44.62ZM106.782 39.54C106.782 37.5 107.049 35.82 107.582 34.5C108.115 33.1667 108.822 32.18 109.702 31.54C110.595 30.9 111.569 30.58 112.622 30.58C114.035 30.58 115.115 31.0067 115.862 31.86C116.622 32.7 117.002 33.9733 117.002 35.68C117.002 37.4267 116.649 38.7133 115.942 39.54C115.249 40.3667 114.342 40.78 113.222 40.78C112.089 40.78 111.235 40.4933 110.662 39.92C110.102 39.3333 109.822 38.5267 109.822 37.5L109.822 36.66C109.809 36.3133 109.729 36.0533 109.582 35.88C109.449 35.6933 109.235 35.6 108.942 35.6C108.675 35.6 108.435 35.72 108.222 35.96C108.022 36.1867 107.862 36.5667 107.742 37.1C107.622 37.62 107.562 38.3267 107.562 39.22L106.782 39.54ZM107.002 32.38L107.562 36.56L107.562 46.26C107.562 46.7267 107.629 47.06 107.762 47.26C107.895 47.4467 108.202 47.5867 108.682 47.68L110.202 47.98C110.602 48.06 110.895 48.2 111.082 48.4C111.269 48.6 111.362 48.88 111.362 49.24C111.362 49.6267 111.229 49.9267 110.962 50.14C110.709 50.3533 110.329 50.46 109.822 50.46L98.762 50.46C98.2287 50.46 97.842 50.3533 97.602 50.14C97.362 49.9267 97.242 49.6333 97.242 49.26C97.242 48.9933 97.3087 48.76 97.442 48.56C97.5754 48.36 97.7954 48.1933 98.102 48.06L98.542 47.86C98.742 47.7667 98.882 47.6133 98.962 47.4C99.042 47.1733 99.082 46.7933 99.082 46.26L99.082 36.94C99.082 36.5133 99.022 36.2133 98.902 36.04C98.7954 35.8533 98.6287 35.7267 98.402 35.66L97.962 35.52C97.682 35.4267 97.4754 35.2933 97.342 35.12C97.222 34.9467 97.162 34.7267 97.162 34.46C97.162 34.14 97.2487 33.8867 97.422 33.7C97.6087 33.5 97.9354 33.3133 98.402 33.14L102.702 31.46C103.649 31.0867 104.329 30.8467 104.742 30.74C105.155 30.6333 105.475 30.58 105.702 30.58C106.075 30.58 106.362 30.72 106.562 31C106.762 31.2667 106.909 31.7267 107.002 32.38ZM146.751 36.76C146.751 37.7733 146.365 38.6333 145.591 39.34C144.831 40.0467 143.811 40.4 142.531 40.4C141.291 40.4 140.358 40.0733 139.731 39.42C139.118 38.7533 138.811 37.9067 138.811 36.88L138.811 36.24C138.811 35.3733 138.631 34.6933 138.271 34.2C137.911 33.6933 137.438 33.44 136.851 33.44C136.385 33.44 135.945 33.6133 135.531 33.96C135.131 34.3067 134.805 34.84 134.551 35.56C134.298 36.2667 134.171 37.1667 134.171 38.26C134.171 39.8067 134.431 41.1 134.951 42.14C135.485 43.18 136.211 43.9667 137.131 44.5C138.051 45.02 139.098 45.28 140.271 45.28C141.125 45.28 141.891 45.18 142.571 44.98C143.265 44.7667 143.951 44.36 144.631 43.76C145.018 43.4133 145.311 43.18 145.511 43.06C145.711 42.94 145.905 42.88 146.091 42.88C146.358 42.88 146.551 43.0133 146.671 43.28C146.805 43.5467 146.871 43.8733 146.871 44.26C146.871 45.4467 146.471 46.56 145.671 47.6C144.885 48.6267 143.785 49.4533 142.371 50.08C140.958 50.7067 139.318 51.02 137.451 51.02C135.411 51.02 133.578 50.62 131.951 49.82C130.338 49.0067 129.058 47.88 128.111 46.44C127.165 44.9867 126.691 43.2933 126.691 41.36C126.691 39.2933 127.145 37.4467 128.051 35.82C128.971 34.1933 130.265 32.9133 131.931 31.98C133.611 31.0467 135.591 30.58 137.871 30.58C139.698 30.58 141.271 30.86 142.591 31.42C143.925 31.9667 144.951 32.7067 145.671 33.64C146.391 34.5733 146.751 35.6133 146.751 36.76ZM160.616 30.58C162.883 30.58 164.863 31.0133 166.556 31.88C168.249 32.7333 169.563 33.9333 170.496 35.48C171.443 37.0267 171.916 38.8267 171.916 40.88C171.916 42.7733 171.423 44.4867 170.436 46.02C169.449 47.5533 168.083 48.7733 166.336 49.68C164.603 50.5733 162.589 51.02 160.296 51.02C158.029 51.02 156.049 50.5867 154.356 49.72C152.663 48.84 151.343 47.6267 150.396 46.08C149.463 44.5333 148.996 42.7467 148.996 40.72C148.996 38.7867 149.489 37.06 150.476 35.54C151.463 34.0067 152.823 32.8 154.556 31.92C156.303 31.0267 158.323 30.58 160.616 30.58ZM162.076 48.12C162.583 48 162.969 47.6467 163.236 47.06C163.503 46.4733 163.623 45.62 163.596 44.5C163.569 43.38 163.369 41.96 162.996 40.24C162.649 38.5867 162.256 37.24 161.816 36.2C161.389 35.16 160.923 34.4133 160.416 33.96C159.909 33.5067 159.383 33.3467 158.836 33.48C158.329 33.6 157.943 33.9533 157.676 34.54C157.409 35.1267 157.289 35.98 157.316 37.1C157.356 38.2067 157.556 39.6267 157.916 41.36C158.263 43 158.656 44.3467 159.096 45.4C159.536 46.44 160.003 47.1867 160.496 47.64C161.003 48.08 161.529 48.24 162.076 48.12ZM184.398 22.06L184.398 46.26C184.398 46.7933 184.438 47.1733 184.518 47.4C184.598 47.6133 184.738 47.7667 184.938 47.86L185.378 48.06C185.685 48.1933 185.905 48.36 186.038 48.56C186.171 48.76 186.238 48.9933 186.238 49.26C186.238 49.6333 186.118 49.9267 185.878 50.14C185.638 50.3533 185.251 50.46 184.718 50.46L175.598 50.46C175.065 50.46 174.678 50.3533 174.438 50.14C174.198 49.9267 174.078 49.6333 174.078 49.26C174.078 48.9933 174.145 48.76 174.278 48.56C174.411 48.36 174.631 48.1933 174.938 48.06L175.378 47.86C175.578 47.7667 175.718 47.6133 175.798 47.4C175.878 47.1733 175.918 46.7933 175.918 46.26L175.918 26.54C175.918 26.1133 175.858 25.8133 175.738 25.64C175.631 25.4533 175.465 25.3267 175.238 25.26L174.798 25.12C174.518 25.0267 174.311 24.8933 174.178 24.72C174.058 24.5467 173.998 24.3267 173.998 24.06C173.998 23.74 174.085 23.4867 174.258 23.3C174.431 23.1133 174.758 22.9267 175.238 22.74L179.678 21.02C180.398 20.74 180.965 20.5467 181.378 20.44C181.791 20.32 182.158 20.26 182.478 20.26C183.118 20.26 183.598 20.4333 183.918 20.78C184.238 21.1133 184.398 21.54 184.398 22.06ZM198.46 22.06L198.46 46.26C198.46 46.7933 198.5 47.1733 198.58 47.4C198.66 47.6133 198.8 47.7667 199 47.86L199.44 48.06C199.747 48.1933 199.967 48.36 200.1 48.56C200.234 48.76 200.3 48.9933 200.3 49.26C200.3 49.6333 200.18 49.9267 199.94 50.14C199.7 50.3533 199.314 50.46 198.78 50.46L189.66 50.46C189.127 50.46 188.74 50.3533 188.5 50.14C188.26 49.9267 188.14 49.6333 188.14 49.26C188.14 48.9933 188.207 48.76 188.34 48.56C188.474 48.36 188.694 48.1933 189 48.06L189.44 47.86C189.64 47.7667 189.78 47.6133 189.86 47.4C189.94 47.1733 189.98 46.7933 189.98 46.26L189.98 26.54C189.98 26.1133 189.92 25.8133 189.8 25.64C189.694 25.4533 189.527 25.3267 189.3 25.26L188.86 25.12C188.58 25.0267 188.374 24.8933 188.24 24.72C188.12 24.5467 188.06 24.3267 188.06 24.06C188.06 23.74 188.147 23.4867 188.32 23.3C188.494 23.1133 188.82 22.9267 189.3 22.74L193.74 21.02C194.46 20.74 195.027 20.5467 195.44 20.44C195.854 20.32 196.22 20.26 196.54 20.26C197.18 20.26 197.66 20.4333 197.98 20.78C198.3 21.1133 198.46 21.54 198.46 22.06ZM222.463 38.3C222.463 39.2333 222.21 39.96 221.703 40.48C221.196 40.9867 220.47 41.24 219.523 41.24L207.663 41.24L207.663 39.16L213.003 39.16C213.736 39.16 214.103 38.8133 214.103 38.12C214.103 36.44 213.91 35.24 213.523 34.52C213.136 33.8 212.623 33.44 211.983 33.44C211.516 33.44 211.096 33.6133 210.723 33.96C210.35 34.3067 210.05 34.84 209.823 35.56C209.61 36.2667 209.503 37.1667 209.503 38.26C209.503 40.6867 210.05 42.4667 211.143 43.6C212.236 44.72 213.73 45.28 215.623 45.28C216.503 45.28 217.303 45.18 218.023 44.98C218.743 44.78 219.45 44.3733 220.143 43.76C220.53 43.4133 220.823 43.18 221.023 43.06C221.223 42.94 221.416 42.88 221.603 42.88C221.87 42.88 222.063 43.0133 222.183 43.28C222.316 43.5467 222.383 43.8733 222.383 44.26C222.383 45.4467 221.976 46.56 221.163 47.6C220.363 48.6267 219.243 49.4533 217.803 50.08C216.376 50.7067 214.71 51.02 212.803 51.02C210.763 51.02 208.93 50.62 207.303 49.82C205.676 49.0067 204.39 47.88 203.443 46.44C202.496 44.9867 202.023 43.2933 202.023 41.36C202.023 39.1867 202.456 37.2933 203.323 35.68C204.19 34.0667 205.45 32.8133 207.103 31.92C208.77 31.0267 210.776 30.58 213.123 30.58C215.19 30.58 216.916 30.9133 218.303 31.58C219.69 32.2467 220.73 33.16 221.423 34.32C222.116 35.48 222.463 36.8067 222.463 38.3ZM244.486 36.76C244.486 37.7733 244.099 38.6333 243.326 39.34C242.566 40.0467 241.546 40.4 240.266 40.4C239.026 40.4 238.092 40.0733 237.466 39.42C236.852 38.7533 236.546 37.9067 236.546 36.88L236.546 36.24C236.546 35.3733 236.366 34.6933 236.006 34.2C235.646 33.6933 235.172 33.44 234.586 33.44C234.119 33.44 233.679 33.6133 233.266 33.96C232.866 34.3067 232.539 34.84 232.286 35.56C232.032 36.2667 231.906 37.1667 231.906 38.26C231.906 39.8067 232.166 41.1 232.686 42.14C233.219 43.18 233.946 43.9667 234.866 44.5C235.786 45.02 236.832 45.28 238.006 45.28C238.859 45.28 239.626 45.18 240.306 44.98C240.999 44.7667 241.686 44.36 242.366 43.76C242.752 43.4133 243.046 43.18 243.246 43.06C243.446 42.94 243.639 42.88 243.826 42.88C244.092 42.88 244.286 43.0133 244.406 43.28C244.539 43.5467 244.606 43.8733 244.606 44.26C244.606 45.4467 244.206 46.56 243.406 47.6C242.619 48.6267 241.519 49.4533 240.106 50.08C238.692 50.7067 237.052 51.02 235.186 51.02C233.146 51.02 231.312 50.62 229.686 49.82C228.072 49.0067 226.792 47.88 225.846 46.44C224.899 44.9867 224.426 43.2933 224.426 41.36C224.426 39.2933 224.879 37.4467 225.786 35.82C226.706 34.1933 227.999 32.9133 229.666 31.98C231.346 31.0467 233.326 30.58 235.606 30.58C237.432 30.58 239.006 30.86 240.326 31.42C241.659 31.9667 242.686 32.7067 243.406 33.64C244.126 34.5733 244.486 35.6133 244.486 36.76ZM247.65 33.78L247.01 33.52C246.717 33.4 246.497 33.2467 246.35 33.06C246.204 32.8733 246.13 32.6467 246.13 32.38C246.13 31.9933 246.257 31.7 246.51 31.5C246.777 31.2867 247.117 31.18 247.53 31.18L248.63 31.18C248.884 31.18 249.117 31.1133 249.33 30.98C249.557 30.8467 249.844 30.6067 250.19 30.26L253.45 26.96C253.89 26.52 254.297 26.1933 254.67 25.98C255.057 25.7667 255.424 25.66 255.77 25.66C256.157 25.66 256.457 25.7867 256.67 26.04C256.897 26.2933 257.01 26.66 257.01 27.14L257.01 43.18C257.01 44.1533 257.177 44.8933 257.51 45.4C257.844 45.9067 258.324 46.16 258.95 46.16C259.457 46.16 259.844 46.0333 260.11 45.78C260.39 45.5267 260.61 45.24 260.77 44.92C260.944 44.5867 261.124 44.2933 261.31 44.04C261.497 43.7867 261.75 43.66 262.07 43.66C262.337 43.66 262.55 43.7533 262.71 43.94C262.87 44.1267 262.95 44.4467 262.95 44.9C262.95 46.0333 262.624 47.0667 261.97 48C261.317 48.92 260.417 49.6533 259.27 50.2C258.124 50.7467 256.817 51.02 255.35 51.02C253.177 51.02 251.497 50.5 250.31 49.46C249.124 48.4067 248.53 46.82 248.53 44.7L248.53 35.08C248.53 34.6933 248.457 34.4133 248.31 34.24C248.177 34.0667 247.957 33.9133 247.65 33.78ZM254.09 34.02L254.09 31.18L261.39 31.18C261.804 31.18 262.13 31.2733 262.37 31.46C262.624 31.6333 262.75 31.8867 262.75 32.22C262.75 32.7267 262.504 33.1533 262.01 33.5C261.517 33.8467 260.704 34.02 259.57 34.02L254.09 34.02ZM274.906 32.38L274.906 46.26C274.906 46.7933 274.946 47.1733 275.026 47.4C275.106 47.6133 275.246 47.7667 275.446 47.86L275.886 48.06C276.192 48.1933 276.412 48.36 276.546 48.56C276.679 48.76 276.746 48.9933 276.746 49.26C276.746 49.6333 276.626 49.9267 276.386 50.14C276.146 50.3533 275.759 50.46 275.226 50.46L266.106 50.46C265.572 50.46 265.186 50.3533 264.946 50.14C264.706 49.9267 264.586 49.6333 264.586 49.26C264.586 48.9933 264.652 48.76 264.786 48.56C264.919 48.36 265.139 48.1933 265.446 48.06L265.886 47.86C266.086 47.7667 266.226 47.6133 266.306 47.4C266.386 47.1733 266.426 46.7933 266.426 46.26L266.426 36.86C266.426 36.4333 266.366 36.1333 266.246 35.96C266.139 35.7733 265.972 35.6467 265.746 35.58L265.306 35.44C265.026 35.3467 264.819 35.2133 264.686 35.04C264.566 34.8667 264.506 34.6467 264.506 34.38C264.506 34.06 264.592 33.8067 264.766 33.62C264.939 33.4333 265.266 33.2467 265.746 33.06L270.186 31.34C270.906 31.06 271.472 30.8667 271.886 30.76C272.299 30.64 272.666 30.58 272.986 30.58C273.626 30.58 274.106 30.7533 274.426 31.1C274.746 31.4333 274.906 31.86 274.906 32.38ZM270.226 28.82C268.732 28.82 267.552 28.4733 266.686 27.78C265.819 27.0867 265.386 26.14 265.386 24.94C265.386 23.7533 265.819 22.82 266.686 22.14C267.552 21.46 268.732 21.12 270.226 21.12C271.719 21.12 272.899 21.46 273.766 22.14C274.632 22.82 275.066 23.7533 275.066 24.94C275.066 26.14 274.632 27.0867 273.766 27.78C272.899 28.4733 271.719 28.82 270.226 28.82ZM290.108 30.58C292.375 30.58 294.355 31.0133 296.048 31.88C297.742 32.7333 299.055 33.9333 299.988 35.48C300.935 37.0267 301.408 38.8267 301.408 40.88C301.408 42.7733 300.915 44.4867 299.928 46.02C298.942 47.5533 297.575 48.7733 295.828 49.68C294.095 50.5733 292.082 51.02 289.788 51.02C287.522 51.02 285.542 50.5867 283.848 49.72C282.155 48.84 280.835 47.6267 279.888 46.08C278.955 44.5333 278.488 42.7467 278.488 40.72C278.488 38.7867 278.982 37.06 279.968 35.54C280.955 34.0067 282.315 32.8 284.048 31.92C285.795 31.0267 287.815 30.58 290.108 30.58ZM291.568 48.12C292.075 48 292.462 47.6467 292.728 47.06C292.995 46.4733 293.115 45.62 293.088 44.5C293.062 43.38 292.862 41.96 292.488 40.24C292.142 38.5867 291.748 37.24 291.308 36.2C290.882 35.16 290.415 34.4133 289.908 33.96C289.402 33.5067 288.875 33.3467 288.328 33.48C287.822 33.6 287.435 33.9533 287.168 34.54C286.902 35.1267 286.782 35.98 286.808 37.1C286.848 38.2067 287.048 39.6267 287.408 41.36C287.755 43 288.148 44.3467 288.588 45.4C289.028 46.44 289.495 47.1867 289.988 47.64C290.495 48.08 291.022 48.24 291.568 48.12ZM313.89 32.38L313.89 46.26C313.89 46.7933 313.93 47.1667 314.01 47.38C314.09 47.5933 314.23 47.7533 314.43 47.86L314.83 48.08C315.27 48.3333 315.49 48.7 315.49 49.18C315.49 50.0333 314.977 50.46 313.95 50.46L305.09 50.46C304.557 50.46 304.17 50.3533 303.93 50.14C303.69 49.9267 303.57 49.6333 303.57 49.26C303.57 48.9933 303.637 48.76 303.77 48.56C303.904 48.36 304.124 48.1933 304.43 48.06L304.87 47.86C305.07 47.7667 305.21 47.6133 305.29 47.4C305.37 47.1733 305.41 46.7933 305.41 46.26L305.41 36.86C305.41 36.4333 305.35 36.1333 305.23 35.96C305.124 35.7733 304.957 35.6467 304.73 35.58L304.29 35.44C304.01 35.3467 303.803 35.2133 303.67 35.04C303.55 34.8667 303.49 34.6467 303.49 34.38C303.49 34.06 303.577 33.8067 303.75 33.62C303.923 33.4333 304.25 33.2467 304.73 33.06L309.17 31.34C309.85 31.0733 310.397 30.88 310.81 30.76C311.237 30.64 311.65 30.58 312.05 30.58C312.65 30.58 313.103 30.7533 313.41 31.1C313.73 31.4333 313.89 31.86 313.89 32.38ZM313.17 37.26L311.97 35.98L312.57 35.42C314.45 33.62 316.083 32.3667 317.47 31.66C318.857 30.94 320.13 30.58 321.29 30.58C323.077 30.58 324.517 31.1733 325.61 32.36C326.703 33.5333 327.25 35.0733 327.25 36.98L327.25 46.26C327.25 46.7933 327.29 47.1733 327.37 47.4C327.45 47.6133 327.59 47.7667 327.79 47.86L328.23 48.06C328.537 48.1933 328.757 48.36 328.89 48.56C329.023 48.76 329.09 48.9933 329.09 49.26C329.09 49.6333 328.97 49.9267 328.73 50.14C328.49 50.3533 328.103 50.46 327.57 50.46L318.71 50.46C317.684 50.46 317.17 50.0333 317.17 49.18C317.17 48.7 317.39 48.3333 317.83 48.08L318.23 47.86C318.43 47.7533 318.57 47.5933 318.65 47.38C318.73 47.1667 318.77 46.7933 318.77 46.26L318.77 38.18C318.77 37.3267 318.57 36.6867 318.17 36.26C317.783 35.8333 317.237 35.62 316.53 35.62C316.09 35.62 315.63 35.7067 315.15 35.88C314.67 36.0533 314.243 36.3067 313.87 36.64L313.17 37.26Z" fill="#83888F" fill-opacity="1.000000" fill-rule="evenodd"/>
		<rect id="Rectangle" width="375.000000" height="72.000000" fill="url(#paint_linear_0_656_0)" fill-opacity="1.000000"/>
		<rect id="Rectangle" width="375.000000" height="72.000000" stroke="#979797" stroke-opacity="0" stroke-width="0.000000"/>
	</g>
</svg>
