<svg width="217.846161" height="24.000000" viewBox="0 0 217.846 24" fill="none" xmlns="http://www.w3.org/2000/svg" xmlns:xlink="http://www.w3.org/1999/xlink">
	<desc>
			Created with Pixso.
	</desc>
	<defs/>
	<path id="coffeeroasters" d="M40.2084 21.8613Q38.8544 22.5176 37.049 22.5176Q35.2583 22.5176 33.8179 21.8086L33.8165 21.8066Q33.7206 21.7598 33.6262 21.709C32.6182 21.1699 31.8234 20.3906 31.2416 19.3672Q30.369 17.834 30.369 15.6367Q30.369 13.6738 31.1491 12.0957L31.1492 12.0957Q31.2117 11.9688 31.2792 11.8457Q31.7529 10.9766 32.42 10.2969Q33.035 9.66992 33.8143 9.20703Q33.8916 9.16016 33.9702 9.11523Q35.5422 8.23633 37.6057 8.23633Q39.4562 8.23633 40.7275 8.78711C41.575 9.15234 42.2219 9.64844 42.6683 10.2734Q42.9923 10.7285 43.1595 11.2344Q43.3378 11.7734 43.3378 12.3711Q43.3378 13.3945 42.8462 14.0488Q42.7513 14.1738 42.6382 14.2871Q42.5152 14.4082 42.3767 14.5098Q41.7271 14.9805 40.735 14.9805Q39.679 14.9805 39.0584 14.4609L39.0583 14.4609Q38.9539 14.373 38.8619 14.2715C38.4356 13.7988 38.2225 13.1504 38.2225 12.3262L38.2225 11.3496C38.2225 10.8516 38.1322 10.4746 37.9517 10.2207Q37.8353 10.0566 37.6774 9.96289Q37.4676 9.83984 37.1844 9.83984Q37.045 9.83984 36.9135 9.87109Q36.576 9.95312 36.2892 10.2441Q35.8905 10.6484 35.6724 11.457Q35.4542 12.2656 35.4542 13.4551Q35.4542 15.1641 35.9582 16.3242Q36.4622 17.4824 37.3348 18.0625Q37.614 18.248 37.9179 18.375Q38.5637 18.6426 39.3207 18.6426Q40.4341 18.6426 41.1863 18.3145C41.6878 18.0957 42.074 17.7266 42.3448 17.209C42.4952 17.0664 42.6131 16.9746 42.6984 16.9336C42.7836 16.8926 42.8663 16.873 42.9466 16.873C43.0469 16.8828 43.1296 16.9316 43.1948 17.0176C43.2513 17.0938 43.2796 17.2031 43.2796 17.3516C43.2796 17.375 43.2789 17.3984 43.2776 17.4219C43.1973 18.4199 42.8914 19.2988 42.3598 20.0625C41.8282 20.8242 41.1111 21.4238 40.2084 21.8613ZM55.5016 21.5566C54.3732 22.1777 53.0618 22.4883 51.5673 22.4883Q49.3858 22.4883 47.7384 21.5801C46.6401 20.9746 45.785 20.1387 45.1732 19.0703Q45.1434 19.0176 45.1145 18.9648Q44.2555 17.4004 44.2555 15.3633Q44.2555 13.8594 44.7923 12.5801Q44.9744 12.1465 45.2184 11.7383Q45.5692 11.1523 46.0179 10.6543Q46.8007 9.78516 47.8813 9.18359Q47.9184 9.16211 47.9557 9.14258Q49.6296 8.23633 51.793 8.23633Q53.9896 8.23633 55.6295 9.15234C56.7227 9.76367 57.5753 10.6074 58.1871 11.6855Q58.2105 11.7266 58.2333 11.7676Q59.1049 13.3574 59.1049 15.4238C59.1049 16.7656 58.7864 17.9688 58.1495 19.0312C57.5126 20.0957 56.6299 20.9375 55.5016 21.5566ZM52.7108 20.9004C52.3998 20.9629 52.0964 20.8242 51.8005 20.4883C51.5046 20.1523 51.2238 19.5879 50.958 18.7949C50.6922 18.002 50.439 16.959 50.1982 15.668C49.9675 14.375 49.8372 13.3125 49.8071 12.4785C49.8021 12.3398 49.7996 12.207 49.7996 12.0781Q49.7996 11.1211 49.9876 10.5859C50.1381 10.1602 50.3688 9.91016 50.6797 9.83984Q50.7652 9.82227 50.8499 9.82617Q51.2274 9.83984 51.5899 10.252C51.8858 10.5859 52.1691 11.1523 52.4399 11.9453Q52.8461 13.1348 53.2072 15.0723C53.4479 16.3652 53.5808 17.4297 53.6059 18.2695Q53.6111 18.4434 53.6111 18.6074C53.6111 19.2793 53.5442 19.8008 53.4103 20.168C53.2549 20.5957 53.0217 20.8398 52.7108 20.9004ZM69.8318 21.5117C69.8318 21.9785 69.5962 22.2129 69.1248 22.2129L60.8199 22.2129Q60.5852 22.2129 60.4191 22.1055Q60.3723 22.0762 60.331 22.0371C60.2056 21.9199 60.1429 21.7559 60.1429 21.541C60.1429 21.3594 60.1855 21.2109 60.2708 21.0996C60.3561 20.9883 60.489 20.8965 60.6695 20.8242L61.3165 20.627C61.4769 20.5762 61.6023 20.4785 61.6926 20.3359C61.7828 20.1934 61.8279 19.9902 61.8279 19.7266L61.8279 10.9082C61.8279 10.7656 61.7928 10.6445 61.7227 10.5488C61.6525 10.4512 61.522 10.3633 61.3315 10.2812L60.4589 9.99219C60.2282 9.88086 60.0627 9.75977 59.9624 9.63281C59.8621 9.50586 59.812 9.35156 59.812 9.16797C59.812 8.98438 59.8746 8.83398 60 8.71875L60.0493 8.67578C60.1694 8.58789 60.326 8.54297 60.519 8.54297L61.8392 8.54297L61.8289 8.45312C61.8007 8.27539 61.7302 8.10352 61.6173 7.93945C61.4669 7.7207 61.2964 7.47461 61.1058 7.19922C60.9152 6.92578 60.7448 6.59766 60.5943 6.21484C60.4438 5.83398 60.3686 5.36328 60.3686 4.80469C60.3686 3.47266 60.8199 2.40625 61.7227 1.60742C62.6254 0.808594 63.9092 0.410156 65.5742 0.410156C66.6473 0.410156 67.5375 0.583984 68.2446 0.929688Q69.2666 1.42969 69.7928 2.24805Q69.8127 2.27734 69.8318 2.31055C70.1829 2.88477 70.3585 3.51172 70.3585 4.19336C70.3585 4.99805 70.1503 5.59961 69.7341 6.00195C69.3178 6.4043 68.7838 6.60547 68.1318 6.60547C67.4097 6.60547 66.8279 6.37109 66.3866 5.90234C65.9453 5.43555 65.7246 4.81445 65.7246 4.04102L65.7246 2.68359Q65.7246 2.15039 65.514 1.89844C65.3735 1.73047 65.1579 1.64648 64.8671 1.64648C64.4959 1.64648 64.2151 1.77344 64.0245 2.02734C63.834 2.28125 63.7386 2.64844 63.7386 3.12695C63.7386 3.61328 63.8515 4.07227 64.0772 4.5Q64.0803 4.50586 64.0835 4.51172Q64.4203 5.14453 64.9122 5.69727C65.2432 6.06836 65.5742 6.42383 65.9052 6.76562Q66.4016 7.27539 66.7401 7.77148L66.8044 7.87109C66.9263 8.06836 67.0076 8.26562 67.0482 8.46289L67.062 8.54297L69.2903 8.54297C69.5209 8.54297 69.699 8.58984 69.8243 8.6875C69.9497 8.7832 70.0124 8.93359 70.0124 9.13672C70.0124 9.44336 69.882 9.69141 69.6212 9.88477C69.3605 10.0781 68.9492 10.1758 68.3876 10.1758L67.3194 10.1758L67.3194 19.6797C67.3194 19.9648 67.362 20.1836 67.4473 20.3359C67.5325 20.4883 67.6704 20.5801 67.861 20.6113L69.1548 20.8086C69.3856 20.8398 69.556 20.9141 69.6664 21.0312C69.7767 21.1484 69.8318 21.3086 69.8318 21.5117ZM80.3333 21.5117C80.3333 21.9785 80.0975 22.2129 79.6261 22.2129L71.3213 22.2129Q71.0865 22.2129 70.9205 22.1055Q70.8737 22.0762 70.8323 22.0371C70.707 21.9199 70.6443 21.7559 70.6443 21.541C70.6443 21.3594 70.687 21.2109 70.7722 21.0996C70.8574 20.9883 70.9904 20.8965 71.1709 20.8242L71.8178 20.627C71.9783 20.5762 72.1036 20.4785 72.1939 20.3359C72.2842 20.1934 72.3293 19.9902 72.3293 19.7266L72.3293 10.9082C72.3293 10.7656 72.2943 10.6445 72.224 10.5488C72.1538 10.4512 72.0234 10.3633 71.8328 10.2812L70.9603 9.99219C70.7296 9.88086 70.5641 9.75977 70.4637 9.63281C70.3635 9.50586 70.3133 9.35156 70.3133 9.16797C70.3133 8.98438 70.376 8.83398 70.5013 8.71875L70.5506 8.67578C70.6707 8.58789 70.8273 8.54297 71.0204 8.54297L72.3406 8.54297L72.3303 8.45312Q72.3293 8.44727 72.3283 8.44141Q72.2842 8.17969 72.1187 7.93945Q71.893 7.61133 71.6072 7.19922Q71.3213 6.78711 71.0956 6.21484C70.9452 5.83398 70.87 5.36328 70.87 4.80469Q70.87 3.51172 71.4365 2.55273Q71.7458 2.03125 72.224 1.60742C73.1267 0.808594 74.4105 0.410156 76.0755 0.410156C77.1487 0.410156 78.0389 0.583984 78.746 0.929688C79.4531 1.27539 79.9822 1.73438 80.3333 2.31055C80.6843 2.88477 80.8598 3.51172 80.8598 4.19336Q80.8598 5.35742 80.2788 5.95898Q80.2575 5.98047 80.2354 6.00195C79.8192 6.4043 79.2851 6.60547 78.6332 6.60547Q77.8954 6.60547 77.3531 6.2793Q77.0991 6.12695 76.8879 5.90234C76.4467 5.43555 76.226 4.81445 76.226 4.04102L76.226 2.68359Q76.226 2.15039 76.0153 1.89844C75.8749 1.73047 75.6593 1.64648 75.3684 1.64648C74.9973 1.64648 74.7164 1.77344 74.5259 2.02734C74.3353 2.28125 74.2401 2.64844 74.2401 3.12695C74.2401 3.61328 74.3528 4.07227 74.5786 4.5C74.8042 4.92578 75.0825 5.32617 75.4135 5.69727C75.7445 6.06836 76.0755 6.42383 76.4065 6.76562C76.7375 7.10547 77.0158 7.44141 77.2415 7.77148L77.3058 7.87109C77.4277 8.06836 77.5089 8.26562 77.5496 8.46289L77.5633 8.54297L79.7916 8.54297Q80.1376 8.54297 80.3257 8.6875C80.4511 8.7832 80.5138 8.93359 80.5138 9.13672C80.5138 9.44336 80.3834 9.69141 80.1226 9.88477C79.8618 10.0781 79.4506 10.1758 78.8889 10.1758L77.8207 10.1758L77.8207 19.6797C77.8207 19.9648 77.8633 20.1836 77.9486 20.3359C78.0339 20.4883 78.1718 20.5801 78.3624 20.6113L79.6562 20.8086C79.8869 20.8398 80.0574 20.9141 80.1677 21.0312C80.2781 21.1484 80.3333 21.3086 80.3333 21.5117ZM91.4063 21.7715C90.4334 22.2695 89.3101 22.5176 88.0363 22.5176Q85.9299 22.5176 84.3352 21.6406C83.272 21.0566 82.442 20.2363 81.8453 19.1836C81.2485 18.1309 80.9501 16.9141 80.9501 15.5312Q80.9501 13.3477 81.8152 11.709C82.3919 10.6152 83.2269 9.76367 84.3201 9.15234C85.4134 8.54297 86.7274 8.23633 88.2619 8.23633C89.5658 8.23633 90.6891 8.49414 91.632 9.00781C92.5748 9.52148 93.2994 10.2188 93.806 11.0977Q94.0166 11.4648 94.1689 11.8535Q94.5657 12.8652 94.5657 14.0352C94.5657 14.5039 94.4404 14.8711 94.1896 15.1406L94.1298 15.2012C93.8827 15.4316 93.5415 15.5449 93.1064 15.5449L86.2288 15.5449L86.2435 15.6152Q86.5172 16.873 87.1787 17.6289C87.9309 18.4883 88.9339 18.918 90.1877 18.918C90.9901 18.918 91.6997 18.7344 92.3165 18.3691C92.9333 18.002 93.3471 17.4941 93.5577 16.8418C93.6781 16.7109 93.7859 16.6211 93.8812 16.5762C93.9765 16.5293 94.0592 16.5059 94.1295 16.5059Q94.1898 16.5059 94.2428 16.5273Q94.3221 16.5566 94.3852 16.6289C94.4554 16.7109 94.4905 16.8477 94.4905 17.041Q94.4905 17.8184 94.2706 18.5293Q94.0677 19.1836 93.6781 19.7793C93.1365 20.6094 92.3792 21.2715 91.4063 21.7715ZM86.0718 14.3223C86.0575 14.0879 86.0503 13.8457 86.0503 13.5918Q86.0503 12.1582 86.2609 11.334C86.4014 10.7852 86.5819 10.3965 86.8026 10.168C87.0232 9.9375 87.2689 9.82422 87.5397 9.82422C87.8908 9.82422 88.2193 10.125 88.5252 10.7246C88.8311 11.3242 88.9841 12.3203 88.9841 13.7148C88.9841 14.1426 88.7935 14.3555 88.4124 14.3555L86.0737 14.3555L86.0718 14.3223ZM105.789 21.7715C104.816 22.2695 103.693 22.5176 102.419 22.5176C101.015 22.5176 99.7813 22.2266 98.7181 21.6406C97.655 21.0566 96.825 20.2363 96.2282 19.1836C95.6314 18.1309 95.333 16.9141 95.333 15.5312Q95.333 13.3477 96.1981 11.709C96.7748 10.6152 97.6099 9.76367 98.7031 9.15234C99.7964 8.54297 101.11 8.23633 102.645 8.23633C103.949 8.23633 105.072 8.49414 106.015 9.00781C106.958 9.52148 107.682 10.2188 108.189 11.0977C108.695 11.9785 108.949 12.957 108.949 14.0352C108.949 14.5039 108.823 14.8711 108.573 15.1406L108.513 15.2012C108.266 15.4316 107.924 15.5449 107.489 15.5449L100.612 15.5449L100.626 15.6152Q100.9 16.873 101.562 17.6289C102.314 18.4883 103.317 18.918 104.571 18.918C105.373 18.918 106.083 18.7344 106.699 18.3691C107.316 18.002 107.73 17.4941 107.941 16.8418C108.061 16.7109 108.169 16.6211 108.264 16.5762Q108.407 16.5059 108.512 16.5059C108.613 16.5059 108.698 16.5469 108.768 16.6289C108.838 16.7109 108.873 16.8477 108.873 17.041C108.873 18.0371 108.603 18.9512 108.061 19.7793C107.519 20.6094 106.762 21.2715 105.789 21.7715ZM100.455 14.3223C100.44 14.0879 100.433 13.8457 100.433 13.5918C100.433 12.6367 100.503 11.8828 100.644 11.334C100.784 10.7852 100.965 10.3965 101.185 10.168C101.406 9.9375 101.652 9.82422 101.923 9.82422C102.274 9.82422 102.602 10.125 102.908 10.7246C103.214 11.3242 103.367 12.3203 103.367 13.7148C103.367 14.1426 103.176 14.3555 102.795 14.3555L100.457 14.3555L100.455 14.3223ZM118.615 22.0215C118.49 22.1504 118.307 22.2129 118.066 22.2129L110.543 22.2129C110.323 22.2129 110.15 22.1523 110.024 22.0293C109.899 21.9082 109.836 21.7402 109.836 21.5273C109.836 21.3633 109.874 21.2285 109.949 21.123C110.024 21.0156 110.127 20.916 110.258 20.8242L110.604 20.6875C110.734 20.627 110.824 20.5293 110.874 20.3965C110.925 20.2656 110.95 20.0469 110.95 19.7422L110.95 11.9902C110.95 11.7461 110.922 11.5703 110.867 11.4648C110.812 11.3574 110.719 11.2734 110.589 11.2129L110.197 11.166Q109.987 11.0449 109.889 10.9082C109.824 10.8164 109.791 10.6992 109.791 10.5566C109.791 10.3945 109.841 10.248 109.942 10.1211Q110.092 9.93164 110.453 9.79297L114.726 8.55859C114.977 8.45508 115.187 8.38477 115.358 8.34375C115.528 8.30273 115.674 8.2832 115.794 8.2832C115.965 8.2832 116.093 8.34375 116.178 8.4668L116.205 8.50977C116.276 8.63867 116.324 8.8418 116.351 9.12305L116.465 11.4922L116.491 11.4062C116.542 11.2402 116.598 11.082 116.659 10.9297C117.025 10.0195 117.509 9.34375 118.111 8.90039C118.713 8.45898 119.37 8.23633 120.082 8.23633C120.945 8.23633 121.607 8.52734 122.068 9.10742C122.529 9.6875 122.76 10.5664 122.76 11.7461C122.76 12.916 122.519 13.7754 122.038 14.3242C121.556 14.875 120.935 15.1484 120.172 15.1484Q119.075 15.1484 118.54 14.5996Q118.532 14.5918 118.525 14.584C118.169 14.207 117.981 13.6738 117.961 12.9824L117.946 12.3711C117.936 12.1387 117.89 11.9551 117.81 11.8223C117.73 11.6914 117.6 11.625 117.419 11.625C117.238 11.625 117.08 11.7188 116.945 11.9062C116.81 12.0957 116.707 12.3828 116.637 12.7695C116.566 13.1543 116.531 13.6484 116.531 14.248L116.531 19.6191C116.531 19.9043 116.576 20.1309 116.667 20.2988Q116.73 20.416 116.827 20.4922Q116.936 20.5781 117.088 20.6113L118.216 20.8398C118.427 20.8711 118.577 20.9492 118.668 21.0762C118.758 21.2031 118.803 21.3535 118.803 21.5273C118.803 21.7305 118.74 21.8945 118.615 22.0215ZM130.643 22.4883C129.189 22.4883 127.913 22.1855 126.815 21.5801C125.716 20.9746 124.861 20.1387 124.249 19.0703C123.638 18.002 123.332 16.7656 123.332 15.3633C123.332 14.0195 123.653 12.8125 124.295 11.7383C124.936 10.666 125.824 9.81445 126.957 9.18359C128.091 8.55273 129.395 8.23633 130.869 8.23633C132.334 8.23633 133.612 8.54297 134.706 9.15234C135.799 9.76367 136.651 10.6074 137.263 11.6855C137.875 12.7637 138.181 14.0098 138.181 15.4238C138.181 16.7656 137.863 17.9688 137.226 19.0312C136.589 20.0957 135.706 20.9375 134.578 21.5566C133.449 22.1777 132.138 22.4883 130.643 22.4883ZM131.787 20.9004C131.476 20.9629 131.173 20.8242 130.877 20.4883C130.581 20.1523 130.3 19.5879 130.034 18.7949Q129.635 17.6055 129.274 15.668C129.044 14.375 128.913 13.3125 128.883 12.4785C128.878 12.3398 128.876 12.207 128.876 12.0781C128.876 11.4395 128.938 10.9434 129.064 10.5859C129.214 10.1602 129.445 9.91016 129.756 9.83984Q129.841 9.82227 129.926 9.82617Q130.304 9.83984 130.666 10.252Q131.11 10.7539 131.516 11.9453C131.787 12.7383 132.043 13.7812 132.283 15.0723Q132.644 17.0098 132.682 18.2695C132.686 18.3848 132.687 18.498 132.687 18.6074C132.687 19.2793 132.62 19.8008 132.487 20.168C132.331 20.5957 132.098 20.8398 131.787 20.9004ZM152.188 22.0527C151.646 22.3633 150.954 22.5176 150.112 22.5176Q148.592 22.5176 147.757 21.8691L147.662 21.793C147.354 21.5312 147.142 21.2363 147.026 20.9062L147.004 20.8379L146.983 20.8633C146.617 21.3164 146.14 21.6836 145.553 21.9609C144.771 22.332 143.928 22.5176 143.025 22.5176C141.822 22.5176 140.857 22.1973 140.129 21.5566Q139.629 21.1152 139.358 20.5625Q139.039 19.9102 139.039 19.0996C139.039 17.7891 139.568 16.7656 140.626 16.0332Q142.213 14.9355 145.448 14.9355L145.61 14.9375C145.928 14.9434 146.208 14.9707 146.451 15.0176L146.531 15.0352L146.531 10.5859C146.531 10.2305 146.448 9.94922 146.283 9.74023C146.117 9.53125 145.894 9.42773 145.613 9.42773C145.352 9.42773 145.134 9.50586 144.959 9.66406C144.783 9.82227 144.695 10.043 144.695 10.3281L144.695 11.4863Q144.695 12.207 144.389 12.7578Q144.215 13.0684 143.943 13.3262C143.442 13.7988 142.755 14.0352 141.882 14.0352C141.17 14.0352 140.626 13.8652 140.25 13.5234C139.874 13.1836 139.685 12.6875 139.685 12.0371C139.685 11.4258 139.939 10.8281 140.445 10.2441C140.952 9.6582 141.709 9.17773 142.717 8.80273C143.725 8.42578 144.981 8.23633 146.486 8.23633C148.422 8.23633 149.843 8.60547 150.751 9.34375C151.659 10.0801 152.113 11.1211 152.113 12.4629L152.113 19.207C152.113 19.4004 152.155 19.5566 152.24 19.6719C152.326 19.7891 152.454 19.8477 152.624 19.8477C152.745 19.8477 152.857 19.8125 152.963 19.7422C153.068 19.6699 153.146 19.543 153.196 19.3594C153.226 19.3184 153.261 19.2891 153.301 19.2676C153.341 19.248 153.386 19.2383 153.437 19.2383Q153.503 19.2383 153.559 19.2617Q153.641 19.2988 153.7 19.3906C153.765 19.4922 153.798 19.6191 153.798 19.7715C153.798 20.127 153.665 20.5195 153.399 20.9473C153.133 21.373 152.729 21.7422 152.188 22.0527ZM145.899 20.1387C145.498 20.1387 145.174 19.9727 144.929 19.6426C144.683 19.3125 144.56 18.8047 144.56 18.125C144.56 17.4121 144.678 16.873 144.914 16.5059C145.149 16.1406 145.463 15.957 145.854 15.957C146.085 15.957 146.285 15.9805 146.456 16.0254L146.531 16.0488L146.531 19.9648L146.482 19.9922C146.322 20.0762 146.156 20.123 145.985 20.1348L145.899 20.1387ZM164.826 21.3281C163.873 22.1523 162.504 22.5645 160.718 22.5645C160.117 22.5645 159.617 22.5078 159.221 22.3965C158.825 22.2852 158.504 22.1719 158.258 22.0605C158.013 21.9492 157.815 21.8926 157.664 21.8926C157.514 21.8926 157.316 21.9492 157.07 22.0605L156.333 22.3965Q155.964 22.5645 155.708 22.5645C155.558 22.5645 155.417 22.5137 155.287 22.4121C155.157 22.3105 155.056 22.1055 154.986 21.8008L154.52 18.7656Q154.439 18.418 154.439 18.1348Q154.439 17.9473 154.475 17.7891C154.535 17.5234 154.67 17.3516 154.881 17.2695C155.102 17.168 155.32 17.1621 155.535 17.2539Q155.859 17.3926 156.115 17.7422C156.686 18.627 157.203 19.3242 157.664 19.832C158.126 20.3418 158.574 20.6992 159.011 20.9082C159.447 21.1172 159.906 21.2207 160.387 21.2207C160.899 21.2207 161.28 21.0996 161.531 20.8555C161.781 20.6113 161.907 20.3008 161.907 19.9238C161.907 19.6406 161.834 19.3809 161.689 19.1465C161.543 18.9121 161.277 18.6953 160.891 18.498C160.505 18.2988 159.951 18.1035 159.229 17.9102C158.116 17.625 157.193 17.2539 156.461 16.7969C155.728 16.3398 155.184 15.7891 154.828 15.1484Q154.294 14.1875 154.294 12.9062Q154.294 11.6465 154.834 10.6914Q154.915 10.5488 155.009 10.4121Q155.186 10.1523 155.395 9.92383Q156.031 9.22656 156.965 8.80273Q158.206 8.23633 159.755 8.23633Q160.688 8.23633 161.275 8.41992Q161.862 8.60352 162.185 8.78711C162.401 8.9082 162.564 8.96875 162.674 8.96875C162.794 8.96875 162.973 8.91016 163.208 8.79492C163.444 8.67773 163.682 8.5625 163.923 8.45117C164.164 8.33984 164.364 8.2832 164.525 8.2832C164.705 8.2832 164.851 8.34375 164.961 8.4668C165.071 8.58789 165.147 8.79688 165.187 9.0918L165.578 11.8984C165.619 12.1367 165.639 12.3418 165.639 12.5156Q165.639 12.7012 165.608 12.8379Q165.569 13.0078 165.464 13.1152Q165.368 13.2129 165.217 13.2578C165.046 13.2969 164.866 13.2637 164.675 13.1582C164.485 13.0508 164.294 12.8809 164.103 12.6465C163.371 11.5371 162.702 10.7539 162.095 10.2969Q161.402 9.77344 160.643 9.65039Q160.406 9.61133 160.162 9.61133Q159.424 9.61133 159.048 9.93164C158.798 10.1445 158.672 10.4238 158.672 10.7695C158.672 11.0039 158.727 11.2227 158.838 11.4258C158.948 11.6289 159.151 11.8203 159.447 11.998Q159.891 12.2656 160.703 12.5254C162.158 12.9727 163.286 13.4473 164.088 13.9512Q165.292 14.707 165.773 15.6836C166.094 16.334 166.255 17.0918 166.255 17.957Q166.255 19.3965 165.606 20.4258Q165.292 20.9258 164.826 21.3281ZM174.981 21.9922C174.319 22.3418 173.537 22.5176 172.634 22.5176C171.109 22.5176 169.963 22.1465 169.196 21.4043C168.429 20.6621 168.045 19.4922 168.045 17.8945L168.045 10.998C168.045 10.7852 168.025 10.623 167.985 10.5098C167.945 10.3984 167.845 10.3066 167.684 10.2363L166.977 10.0078C166.807 9.92578 166.696 9.82617 166.646 9.70898C166.596 9.5918 166.571 9.44727 166.571 9.27539Q166.571 9.0918 166.645 8.94531Q166.7 8.83594 166.796 8.74805C166.947 8.61133 167.132 8.54297 167.353 8.54297L168.09 8.54297C168.181 8.54297 168.276 8.50586 168.376 8.43555C168.476 8.36523 168.612 8.22266 168.782 8.00781L171.566 5.67383C171.766 5.42969 171.967 5.24414 172.167 5.11719C172.368 4.99023 172.569 4.92578 172.769 4.92578C173 4.92578 173.181 4.99805 173.311 5.14062L173.352 5.19141C173.455 5.33398 173.506 5.54102 173.506 5.81055L173.506 8.54297L176.651 8.54297C176.872 8.54297 177.042 8.58984 177.162 8.6875C177.283 8.7832 177.343 8.93359 177.343 9.13672C177.343 9.42188 177.218 9.66602 176.967 9.86914L176.911 9.91211C176.658 10.0879 176.276 10.1758 175.763 10.1758L173.506 10.1758L173.506 17.1328C173.506 17.8945 173.634 18.459 173.89 18.8262C174.146 19.1914 174.52 19.375 175.011 19.375Q175.227 19.375 175.421 19.3105Q175.512 19.2812 175.598 19.2383C175.778 19.1465 175.941 19.0273 176.087 18.8789C176.232 18.7324 176.37 18.5664 176.5 18.3828C176.631 18.2012 176.756 18.0176 176.877 17.834C176.977 17.793 177.065 17.8105 177.14 17.8867C177.206 17.9551 177.239 18.084 177.239 18.2734C177.239 18.2988 177.239 18.3262 177.238 18.3535C177.167 19.1777 176.939 19.9023 176.553 20.5273C176.167 21.1523 175.643 21.6406 174.981 21.9922ZM188.205 21.7715C187.232 22.2695 186.109 22.5176 184.835 22.5176C183.431 22.5176 182.197 22.2266 181.134 21.6406C180.071 21.0566 179.241 20.2363 178.644 19.1836C178.048 18.1309 177.749 16.9141 177.749 15.5312Q177.749 13.3477 178.614 11.709C179.191 10.6152 180.026 9.76367 181.119 9.15234C182.212 8.54297 183.526 8.23633 185.061 8.23633Q187.017 8.23633 188.431 9.00781C189.374 9.52148 190.099 10.2188 190.605 11.0977C191.112 11.9785 191.365 12.957 191.365 14.0352C191.365 14.5039 191.239 14.8711 190.989 15.1406L190.929 15.2012C190.682 15.4316 190.341 15.5449 189.905 15.5449L183.028 15.5449L183.043 15.6152Q183.316 16.873 183.978 17.6289C184.73 18.4883 185.733 18.918 186.987 18.918C187.789 18.918 188.499 18.7344 189.116 18.3691C189.732 18.002 190.146 17.4941 190.357 16.8418C190.477 16.7109 190.585 16.6211 190.68 16.5762Q190.823 16.5059 190.929 16.5059Q190.989 16.5059 191.042 16.5273Q191.121 16.5566 191.184 16.6289C191.254 16.7109 191.29 16.8477 191.29 17.041C191.29 18.0371 191.019 18.9512 190.477 19.7793Q190.366 19.9492 190.243 20.1113Q189.465 21.125 188.205 21.7715ZM182.871 14.3223C182.857 14.0879 182.849 13.8457 182.849 13.5918C182.849 12.6367 182.92 11.8828 183.06 11.334C183.2 10.7852 183.381 10.3965 183.602 10.168C183.822 9.9375 184.068 9.82422 184.339 9.82422C184.69 9.82422 185.018 10.125 185.324 10.7246C185.63 11.3242 185.783 12.3203 185.783 13.7148Q185.783 14.0723 185.606 14.2305Q185.465 14.3555 185.211 14.3555L182.873 14.3555L182.871 14.3223ZM201.031 22.0215C200.906 22.1504 200.723 22.2129 200.482 22.2129L192.96 22.2129C192.739 22.2129 192.566 22.1523 192.441 22.0293C192.315 21.9082 192.252 21.7402 192.252 21.5273C192.252 21.3633 192.29 21.2285 192.365 21.123C192.441 21.0156 192.543 20.916 192.674 20.8242L193.02 20.6875C193.15 20.627 193.24 20.5293 193.291 20.3965C193.341 20.2656 193.366 20.0469 193.366 19.7422L193.366 11.9902C193.366 11.7461 193.338 11.5703 193.283 11.4648C193.228 11.3574 193.135 11.2734 193.005 11.2129L192.614 11.166C192.473 11.0859 192.37 10.998 192.305 10.9082C192.24 10.8164 192.207 10.6992 192.207 10.5566C192.207 10.3945 192.258 10.248 192.358 10.1211C192.458 9.99414 192.629 9.88477 192.869 9.79297L197.142 8.55859C197.393 8.45508 197.603 8.38477 197.774 8.34375C197.944 8.30273 198.09 8.2832 198.21 8.2832C198.381 8.2832 198.509 8.34375 198.594 8.4668L198.621 8.50977C198.692 8.63867 198.74 8.8418 198.767 9.12305L198.881 11.4941L198.908 11.4062C198.958 11.2402 199.014 11.082 199.075 10.9297Q199.624 9.56445 200.527 8.90039C201.129 8.45898 201.786 8.23633 202.498 8.23633C203.361 8.23633 204.023 8.52734 204.484 9.10742C204.945 9.6875 205.176 10.5664 205.176 11.7461Q205.176 13.502 204.454 14.3242C203.972 14.875 203.351 15.1484 202.588 15.1484C201.846 15.1484 201.297 14.9609 200.941 14.584C200.585 14.207 200.397 13.6738 200.377 12.9824L200.362 12.3711C200.352 12.1387 200.307 11.9551 200.226 11.8223C200.146 11.6914 200.016 11.625 199.835 11.625C199.655 11.625 199.497 11.7188 199.361 11.9062C199.226 12.0957 199.123 12.3828 199.053 12.7695C198.983 13.1543 198.947 13.6484 198.947 14.248L198.947 19.6191C198.947 19.9043 198.993 20.1309 199.083 20.2988C199.173 20.4668 199.314 20.5703 199.504 20.6113L200.633 20.8398C200.843 20.8711 200.994 20.9492 201.084 21.0762Q201.115 21.1191 201.138 21.166Q201.219 21.3262 201.219 21.5273C201.219 21.7305 201.157 21.8945 201.031 22.0215ZM216.324 21.3281C215.372 22.1523 214.002 22.5645 212.217 22.5645C211.615 22.5645 211.116 22.5078 210.72 22.3965C210.324 22.2852 210.003 22.1719 209.757 22.0605C209.512 21.9492 209.313 21.8926 209.163 21.8926C209.013 21.8926 208.814 21.9492 208.569 22.0605L207.831 22.3965C207.586 22.5078 207.378 22.5645 207.207 22.5645C207.057 22.5645 206.916 22.5137 206.786 22.4121C206.655 22.3105 206.555 22.1055 206.485 21.8008L206.019 18.7656Q205.937 18.418 205.937 18.1348Q205.937 17.9473 205.973 17.7891C206.034 17.5234 206.169 17.3516 206.38 17.2695C206.6 17.168 206.818 17.1621 207.034 17.2539C207.25 17.3457 207.443 17.5078 207.613 17.7422C208.185 18.627 208.702 19.3242 209.163 19.832C209.624 20.3418 210.073 20.6992 210.509 20.9082C210.946 21.1172 211.405 21.2207 211.886 21.2207C212.398 21.2207 212.779 21.0996 213.03 20.8555C213.28 20.6113 213.406 20.3008 213.406 19.9238C213.406 19.6406 213.333 19.3809 213.188 19.1465C213.042 18.9121 212.776 18.6953 212.39 18.498C212.004 18.2988 211.45 18.1035 210.728 17.9102C209.614 17.625 208.692 17.2539 207.959 16.7969Q206.861 16.1094 206.327 15.1484C205.971 14.5078 205.793 13.7598 205.793 12.9062C205.793 11.9395 206.031 11.1074 206.508 10.4121Q206.685 10.1523 206.894 9.92188Q207.53 9.22656 208.463 8.80273C209.291 8.42578 210.221 8.23633 211.254 8.23633Q212.187 8.23633 212.774 8.41992Q213.361 8.60352 213.684 8.78711C213.9 8.9082 214.063 8.96875 214.173 8.96875C214.293 8.96875 214.471 8.91016 214.707 8.79492C214.943 8.67773 215.181 8.5625 215.422 8.45117C215.662 8.33984 215.863 8.2832 216.023 8.2832Q216.197 8.2832 216.327 8.35742Q216.4 8.40039 216.46 8.4668C216.57 8.58789 216.645 8.79688 216.685 9.0918L217.077 11.8984C217.118 12.1367 217.138 12.3418 217.138 12.5156Q217.138 12.7012 217.107 12.8379Q217.067 13.0078 216.962 13.1152Q216.866 13.2129 216.716 13.2578C216.545 13.2969 216.364 13.2637 216.174 13.1582C215.983 13.0508 215.793 12.8809 215.602 12.6465C214.87 11.5371 214.201 10.7539 213.594 10.2969Q212.901 9.77344 212.142 9.65039Q211.904 9.61133 211.66 9.61133Q210.923 9.61133 210.547 9.93164C210.296 10.1445 210.171 10.4238 210.171 10.7695C210.171 11.0039 210.226 11.2227 210.336 11.4258C210.447 11.6289 210.65 11.8203 210.946 11.998Q211.39 12.2656 212.202 12.5254C213.656 12.9727 214.785 13.4473 215.587 13.9512Q216.791 14.707 217.272 15.6836C217.593 16.334 217.754 17.0918 217.754 17.957Q217.754 19.3965 217.104 20.4258Q216.79 20.9258 216.324 21.3281Z" clip-rule="evenodd" fill="#FFFFFF" fill-opacity="1.000000" fill-rule="evenodd"/>
	<path id="Combined Shape" d="M13.2823 4.10352C10.0382 0.861328 5.22955 0.396484 2.56281 3.06445C-0.105286 5.73438 0.361328 10.543 3.59985 13.7852C4.46387 14.6484 5.45935 15.3105 6.51025 15.7832C6.85504 13.7793 7.84363 11.8535 9.34454 10.2715C8.84747 10.0957 8.33795 9.94531 7.80621 9.80078C4.65771 8.93555 3.09314 6.30859 2.7276 3.23047C3.61652 4.29883 4.27142 5.52148 5.35968 6.41797C6.51996 7.37305 7.79791 7.71875 9.2005 8.12695C9.83606 8.31055 10.3885 8.58398 10.8953 8.90234C12.2272 7.92773 13.7295 7.2793 15.2802 7.01367C14.8081 5.96289 14.1462 4.9668 13.2823 4.10352ZM7.79651 16.5547C8.00281 14.5469 8.97479 12.5859 10.5325 11.0273C13.7766 7.78711 18.5852 7.31836 21.2519 9.99023C23.92 12.6582 23.4548 17.4668 20.2121 20.709C18.6544 22.2676 16.6924 23.2383 14.6862 23.4473C14.419 23.4727 14.1545 23.4863 13.8956 23.4863C12.1704 23.4863 10.6294 22.8809 9.49402 21.7461C8.18695 20.4414 7.58331 18.5957 7.79651 16.5547ZM16.0071 16.7246C14.7554 17.0684 13.6049 17.3887 12.5415 18.1992C11.3258 19.1289 10.6197 20.4258 9.65741 21.582C10.0091 18.5508 11.5321 15.9453 14.6128 15.0508C16.0168 14.6445 17.2934 14.2969 18.4537 13.3438C19.5433 12.4473 20.1982 11.2266 21.0858 10.1562C20.7188 13.2344 19.1556 15.8613 16.0071 16.7246Z" clip-rule="evenodd" fill="#0E8784" fill-opacity="1.000000" fill-rule="evenodd"/>
</svg>
