<svg width="120.000000" height="24.000000" viewBox="0 0 120 24" fill="none" xmlns="http://www.w3.org/2000/svg" xmlns:xlink="http://www.w3.org/1999/xlink">
	<desc>
			Created with Pixso.
	</desc>
	<defs/>
	<path id="Path" d="M22.675 0L1.32501 0C0.592987 0 0 0.592773 0 1.3252L0 22.6758C0 23.4072 0.592987 24 1.32501 24L12.82 24L12.82 14.7061L9.69199 14.7061L9.69199 11.084L12.82 11.084L12.82 8.41309C12.82 5.31348 14.713 3.625 17.479 3.625C18.804 3.625 19.942 3.72363 20.274 3.76758L20.274 7.00781L18.356 7.00879C16.852 7.00879 16.561 7.72363 16.561 8.77246L16.561 11.085L20.148 11.085L19.681 14.707L16.561 14.707L16.561 24L22.677 24C23.407 24 24 23.4072 24 22.6748L24 1.3252C24 0.592773 23.407 0 22.675 0Z" fill="#FEFCF7" fill-opacity="1.000000" fill-rule="nonzero"/>
	<path id="Shape" d="M108 0C104.741 0 104.333 0.0136719 103.053 0.0722656C98.695 0.272461 96.273 2.69043 96.073 7.05176C96.014 8.33301 96 8.74121 96 12C96 15.2588 96.014 15.668 96.072 16.9482C96.272 21.3057 98.69 23.7275 103.052 23.9277C104.333 23.9863 104.741 24 108 24C111.259 24 111.668 23.9863 112.948 23.9277C117.302 23.7275 119.73 21.3096 119.927 16.9482C119.986 15.668 120 15.2588 120 12C120 8.74121 119.986 8.33301 119.928 7.05273C119.732 2.69922 117.311 0.273438 112.949 0.0732422C111.668 0.0136719 111.259 0 108 0ZM112.85 2.2334C111.584 2.1748 111.204 2.16309 108 2.16309C104.796 2.16309 104.417 2.1748 103.151 2.23242C99.896 2.37988 98.381 3.92383 98.232 7.15137C98.175 8.41699 98.162 8.7959 98.162 12C98.162 15.2051 98.174 15.584 98.232 16.8486C98.38 20.0703 99.891 21.6201 103.151 21.7686C104.416 21.8271 104.796 21.8389 108 21.8389C111.206 21.8389 111.584 21.8271 112.85 21.7686C116.105 21.6211 117.62 20.0752 117.769 16.8496C117.826 15.585 117.838 15.2061 117.838 12.001C117.838 8.79688 117.827 8.41699 117.769 7.15234C117.621 3.92383 116.102 2.38086 112.85 2.2334ZM112.965 5.59473C112.965 4.7998 113.61 4.15527 114.406 4.15527C115.201 4.15527 115.845 4.7998 115.845 5.59473C115.845 6.38965 115.201 7.03516 114.406 7.03516C113.61 7.03516 112.965 6.38965 112.965 5.59473ZM101.838 12C101.838 8.59668 104.597 5.83789 108 5.83789C111.403 5.83789 114.162 8.59668 114.162 12C114.162 15.4043 111.403 18.1631 108 18.1631C104.597 18.1631 101.838 15.4033 101.838 12ZM108 16C105.791 16 104 14.21 104 12C104 9.79102 105.791 8 108 8C110.209 8 112 9.79102 112 12C112 14.21 110.209 16 108 16Z" clip-rule="evenodd" fill="#FEFCF7" fill-opacity="1.000000" fill-rule="evenodd"/>
	<path id="Path" d="M72 4.55664C71.117 4.94922 70.168 5.21289 69.172 5.33203C70.189 4.72266 70.97 3.75781 71.337 2.6084C70.386 3.17188 69.332 3.58203 68.21 3.80273C67.313 2.8457 66.032 2.24805 64.616 2.24805C61.437 2.24805 59.101 5.21387 59.819 8.29297C55.728 8.08789 52.1 6.12793 49.671 3.14941C48.381 5.3623 49.002 8.25684 51.194 9.72266C50.388 9.69727 49.628 9.47559 48.965 9.10742C48.911 11.3877 50.546 13.5225 52.914 13.9971C52.221 14.1846 51.462 14.2295 50.69 14.0811C51.316 16.0371 53.134 17.46 55.29 17.5C53.22 19.123 50.612 19.8477 48 19.54C50.179 20.9375 52.768 21.752 55.548 21.752C64.69 21.752 69.855 14.0312 69.543 7.10645C70.505 6.41113 71.34 5.54395 72 4.55664Z" fill="#FEFCF7" fill-opacity="1.000000" fill-rule="nonzero"/>
</svg>
