<svg width="163.000000" height="18.000000" viewBox="0 0 163 18" fill="none" xmlns="http://www.w3.org/2000/svg" xmlns:xlink="http://www.w3.org/1999/xlink">
	<desc>
			Created with Pixso.
	</desc>
	<defs/>
	<path id="coffeeroasters" d="M30.0853 16.3965Q29.0722 16.8887 27.7213 16.8887C26.7682 16.8887 25.9146 16.6865 25.1603 16.2822Q24.7037 16.0371 24.3251 15.7041Q23.7655 15.2119 23.3761 14.5254C22.9408 13.7588 22.7232 12.8262 22.7232 11.7275Q22.7232 10.25 23.3113 9.06348Q23.3561 8.97266 23.4042 8.88379Q23.7616 8.22656 24.2661 7.71387L24.2661 7.71387Q24.7232 7.25 25.301 6.9043Q25.363 6.86719 25.4261 6.83203Q26.5995 6.17773 28.1378 6.17773Q29.5225 6.17773 30.4737 6.58984Q31.4249 7.00195 31.9259 7.70605Q32.1672 8.04492 32.2923 8.42188Q32.4268 8.82812 32.4268 9.2793Q32.4268 10.0488 32.0568 10.5391Q31.9867 10.6318 31.9033 10.7148C31.5544 11.0625 31.0797 11.2354 30.4793 11.2354Q29.6914 11.2354 29.2274 10.8477Q29.1479 10.7812 29.0778 10.7041Q29.0544 10.6777 29.0321 10.6504Q28.5994 10.126 28.5994 9.24512L28.5994 8.5127Q28.5994 7.95117 28.3967 7.66602Q28.3093 7.54199 28.1904 7.47168Q28.0338 7.37988 27.8226 7.37988C27.575 7.37988 27.3517 7.48047 27.1528 7.68262C26.954 7.88477 26.8001 8.18848 26.6913 8.59277Q26.5281 9.19922 26.5281 10.0918Q26.5281 11.373 26.9052 12.2432C27.1566 12.8223 27.4999 13.2578 27.9352 13.5469Q28.1459 13.6875 28.3754 13.7822Q28.8569 13.9824 29.4211 13.9824Q30.2542 13.9824 30.817 13.7363C31.1923 13.5723 31.4812 13.2959 31.6838 12.9062C31.7964 12.7998 31.8846 12.7314 31.9484 12.7002C32.0122 12.6699 32.0741 12.6543 32.1341 12.6543C32.2092 12.6621 32.2711 12.6982 32.3199 12.7637C32.3621 12.8193 32.3833 12.9033 32.3833 13.0137C32.3833 13.0303 32.3828 13.0488 32.3818 13.0664C32.3217 13.8145 32.0928 14.4746 31.6951 15.0459C31.2973 15.6182 30.7607 16.0684 30.0853 16.3965ZM41.5282 16.168C40.6839 16.6328 39.7027 16.8662 38.5845 16.8662Q36.9522 16.8662 35.7195 16.1846C34.8977 15.7314 34.258 15.1035 33.8002 14.3027Q33.7803 14.2676 33.7609 14.2324Q33.1135 13.0557 33.1135 11.5215Q33.1135 10.3896 33.5184 9.42773Q33.6536 9.10645 33.8339 8.80371Q34.0996 8.35938 34.4402 7.98145Q35.0234 7.33496 35.8265 6.8877Q35.8587 6.86914 35.8912 6.85156Q37.1405 6.17773 38.7533 6.17773C39.849 6.17773 40.8059 6.40723 41.6239 6.86426C42.4419 7.32227 43.0798 7.95508 43.5376 8.76367Q43.5527 8.79102 43.5674 8.81738Q44.2243 10.0117 44.2243 11.5674C44.2243 12.5742 43.986 13.4766 43.5095 14.2734C43.0329 15.0713 42.3725 15.7021 41.5282 16.168ZM39.44 15.6758C39.2074 15.7217 38.9803 15.6182 38.7589 15.3672C38.5376 15.1152 38.3274 14.6914 38.1285 14.0967Q37.8302 13.2041 37.5601 11.751Q37.3011 10.2979 37.2674 9.35938Q37.2617 9.20312 37.2617 9.05859C37.2617 8.58008 37.3086 8.20703 37.4025 7.94043Q37.5444 7.53613 37.8135 7.41504Q37.8646 7.39258 37.9203 7.37988C38.1529 7.33398 38.38 7.43652 38.6013 7.68848Q38.9334 8.06641 39.2374 8.95898C39.44 9.55371 39.6314 10.3359 39.8115 11.3047C39.9916 12.2734 40.091 13.0723 40.1098 13.7021C40.1124 13.7891 40.1137 13.874 40.1137 13.9551C40.1137 14.46 40.0636 14.8506 39.9635 15.126C39.8471 15.4473 39.6726 15.6299 39.44 15.6758ZM52.1197 16.5273Q51.9874 16.6602 51.7215 16.6602L45.5076 16.6602C45.3575 16.6602 45.2355 16.6162 45.1417 16.5283C45.0479 16.4404 45.001 16.3164 45.001 16.1562Q45.001 15.9502 45.0967 15.8242C45.1605 15.7402 45.2599 15.6719 45.395 15.6182L45.8791 15.4697C45.9992 15.4316 46.093 15.3594 46.1605 15.252C46.2281 15.1455 46.2618 14.9932 46.2618 14.7949L46.2618 8.18066C46.2618 8.07324 46.2356 7.98438 46.183 7.91113C46.1305 7.83887 46.0329 7.77246 45.8903 7.71094L45.2374 7.49414C45.0648 7.41016 44.941 7.32031 44.8659 7.22461C44.7909 7.12988 44.7534 7.01367 44.7534 6.87598C44.7534 6.73828 44.8003 6.62598 44.8941 6.53809L44.9309 6.50781C45.0208 6.44043 45.138 6.40723 45.2825 6.40723L46.2703 6.40723L46.2625 6.33984C46.2414 6.20605 46.1887 6.07812 46.1042 5.95508C45.9917 5.79102 45.8641 5.60547 45.7215 5.39941Q45.5076 5.09082 45.3387 4.66211Q45.1699 4.23242 45.1699 3.60352Q45.1699 2.62988 45.5968 1.91016Q45.8275 1.52148 46.183 1.20605C46.8585 0.607422 47.8191 0.307617 49.0648 0.307617C49.8679 0.307617 50.5339 0.4375 51.063 0.696289C51.5921 0.956055 51.988 1.30078 52.2506 1.73242C52.5133 2.16309 52.6446 2.63477 52.6446 3.14551Q52.6446 4.01953 52.2078 4.47168Q52.1929 4.48633 52.1774 4.50195C51.866 4.80273 51.4664 4.95312 50.9786 4.95312Q50.4285 4.95312 50.0236 4.71094Q49.8319 4.59668 49.6727 4.42676C49.3425 4.07617 49.1774 3.61133 49.1774 3.03125L49.1774 2.0127Q49.1774 1.6123 49.0198 1.42285Q48.9976 1.39648 48.9721 1.37402Q48.8162 1.23438 48.5358 1.23438C48.2581 1.23438 48.048 1.33008 47.9054 1.52051C47.7628 1.71094 47.6915 1.98633 47.6915 2.34473Q47.6915 2.64551 47.7674 2.92578Q47.8302 3.15723 47.9448 3.37402C48.1136 3.69434 48.3219 3.99414 48.5695 4.27246C48.8172 4.55078 49.0648 4.81836 49.3125 5.07324C49.5602 5.3291 49.7684 5.58105 49.9373 5.8291L49.9854 5.90332C50.0766 6.05176 50.1374 6.19922 50.1678 6.34668L50.1781 6.40723L51.8454 6.40723C52.018 6.40723 52.1512 6.44336 52.245 6.51562C52.3388 6.58789 52.3857 6.7002 52.3857 6.85352C52.3857 7.08203 52.2881 7.26855 52.093 7.41406Q51.8003 7.63086 51.1699 7.63086L50.3707 7.63086L50.3707 14.7607C50.3707 14.9736 50.4026 15.1377 50.4664 15.252C50.5302 15.3672 50.6333 15.4355 50.7759 15.458L51.744 15.6074C51.9167 15.6299 52.0442 15.6855 52.1268 15.7734C52.2093 15.8604 52.2506 15.9805 52.2506 16.1338Q52.2506 16.3955 52.1197 16.5273ZM60.1081 16.1338C60.1081 16.4844 59.9317 16.6602 59.579 16.6602L53.3651 16.6602C53.215 16.6602 53.093 16.6162 52.9992 16.5283C52.9054 16.4404 52.8585 16.3164 52.8585 16.1562Q52.8585 15.9502 52.9542 15.8242C53.018 15.7402 53.1174 15.6719 53.2525 15.6182L53.7366 15.4697C53.8566 15.4316 53.9504 15.3594 54.018 15.252Q54.1193 15.0918 54.1193 14.7949L54.1193 8.18066C54.1193 8.07324 54.093 7.98438 54.0405 7.91113C53.988 7.83887 53.8904 7.77246 53.7478 7.71094L53.0949 7.49414C52.9223 7.41016 52.7985 7.32031 52.7234 7.22461C52.6484 7.12988 52.6108 7.01367 52.6108 6.87598C52.6108 6.73828 52.6578 6.62598 52.7516 6.53809L52.7884 6.50781C52.8783 6.44043 52.9955 6.40723 53.1399 6.40723L54.1277 6.40723L54.12 6.33984C54.0989 6.20605 54.0461 6.07812 53.9617 5.95508C53.8491 5.79102 53.7215 5.60547 53.579 5.39941Q53.3651 5.09082 53.1962 4.66211Q53.0274 4.23242 53.0274 3.60352Q53.0274 2.62988 53.4543 1.91016Q53.685 1.52148 54.0405 1.20605C54.7159 0.607422 55.6765 0.307617 56.9223 0.307617C57.7253 0.307617 58.3914 0.4375 58.9205 0.696289C59.4496 0.956055 59.8454 1.30078 60.1081 1.73242Q60.2882 2.02734 60.386 2.34863Q60.5021 2.72949 60.5021 3.14551Q60.5021 4.01953 60.0652 4.47168Q60.0503 4.48633 60.0349 4.50195Q59.8974 4.63477 59.737 4.72852Q59.3524 4.95312 58.836 4.95312Q58.286 4.95312 57.8811 4.71094Q57.6894 4.59668 57.5302 4.42676C57.2 4.07617 57.0349 3.61133 57.0349 3.03125L57.0349 2.0127Q57.0349 1.6123 56.8773 1.42285C56.7722 1.29785 56.6109 1.23438 56.3932 1.23438C56.1156 1.23438 55.9054 1.33008 55.7628 1.52051C55.6203 1.71094 55.549 1.98633 55.549 2.34473C55.549 2.71094 55.6334 3.05371 55.8022 3.37402C55.9711 3.69434 56.1794 3.99414 56.427 4.27246C56.6747 4.55078 56.9223 4.81836 57.17 5.07324C57.4176 5.3291 57.6259 5.58105 57.7948 5.8291L57.8429 5.90332C57.9341 6.05176 57.9949 6.19922 58.0253 6.34668L58.0355 6.40723L59.7028 6.40723Q59.9618 6.40723 60.1025 6.51562C60.1963 6.58789 60.2432 6.7002 60.2432 6.85352C60.2432 7.08203 60.1456 7.26855 59.9505 7.41406C59.7554 7.55859 59.4477 7.63086 59.0274 7.63086L58.2282 7.63086L58.2282 14.7607C58.2282 14.9736 58.2601 15.1377 58.3238 15.252C58.3876 15.3672 58.4908 15.4355 58.6334 15.458L59.6015 15.6074C59.7741 15.6299 59.9017 15.6855 59.9843 15.7734C60.0668 15.8604 60.1081 15.9805 60.1081 16.1338ZM68.3933 16.3281C67.6654 16.7021 66.8249 16.8887 65.8717 16.8887C64.8211 16.8887 63.898 16.6689 63.1025 16.2305C62.307 15.792 61.686 15.1777 61.2394 14.3887Q61.2301 14.3721 61.2209 14.3555Q60.5696 13.1826 60.5696 11.6475C60.5696 10.5566 60.7854 9.60156 61.2169 8.78125Q61.5176 8.20996 61.9434 7.75586Q62.4342 7.23242 63.0912 6.86426Q64.3183 6.17773 66.0406 6.17773C67.0162 6.17773 67.8568 6.37012 68.5622 6.75586C69.2677 7.14062 69.8099 7.66406 70.1889 8.32324C70.5679 8.9834 70.7573 9.71777 70.7573 10.5264C70.7573 10.877 70.6635 11.1533 70.4759 11.3555L70.4312 11.4004C70.2462 11.5732 69.991 11.6592 69.6654 11.6592L64.5193 11.6592L64.5304 11.7119C64.6669 12.3398 64.9001 12.8438 65.2301 13.2207C65.793 13.8662 66.5434 14.1885 67.4815 14.1885C68.0819 14.1885 68.6129 14.0508 69.0744 13.7764C69.5359 13.502 69.8455 13.1201 70.0031 12.6318C70.0932 12.5322 70.1739 12.4658 70.2451 12.4316C70.3164 12.3975 70.3784 12.3799 70.4309 12.3799C70.5059 12.3799 70.5697 12.4102 70.6223 12.4717C70.6748 12.5322 70.7011 12.6357 70.7011 12.7803Q70.7011 13.3662 70.5351 13.9014Q70.3834 14.3896 70.0932 14.835C69.6879 15.4561 69.1213 15.9541 68.3933 16.3281ZM64.4019 10.7422C64.3912 10.5664 64.3858 10.3838 64.3858 10.1943C64.3858 9.47754 64.4383 8.91309 64.5434 8.50098Q64.701 7.88281 64.9487 7.625C65.1138 7.4541 65.2976 7.36816 65.5003 7.36816Q65.5174 7.36816 65.5345 7.36914Q65.9092 7.39746 66.2376 8.04297C66.4665 8.49316 66.5809 9.24121 66.5809 10.2861Q66.5809 10.5537 66.4478 10.6729Q66.3423 10.7666 66.1532 10.7666L64.4033 10.7666L64.4019 10.7422ZM79.1552 16.3281C78.4272 16.7021 77.5867 16.8887 76.6336 16.8887C75.5829 16.8887 74.6598 16.6689 73.8643 16.2305C73.0688 15.792 72.4478 15.1777 72.0013 14.3887Q71.9919 14.3721 71.9828 14.3555Q71.3315 13.1826 71.3315 11.6475C71.3315 10.5566 71.5472 9.60156 71.9788 8.78125Q72.2794 8.20996 72.7052 7.75586Q73.196 7.23242 73.8531 6.86426Q75.0801 6.17773 76.8024 6.17773C77.7781 6.17773 78.6186 6.37012 79.324 6.75586C80.0295 7.14062 80.5717 7.66406 80.9507 8.32324C81.3297 8.9834 81.5192 9.71777 81.5192 10.5264C81.5192 10.877 81.4254 11.1533 81.2377 11.3555L81.193 11.4004C81.0081 11.5732 80.7528 11.6592 80.4272 11.6592L75.2812 11.6592L75.2922 11.7119C75.4287 12.3398 75.662 12.8438 75.9919 13.2207C76.5548 13.8662 77.3053 14.1885 78.2433 14.1885C78.8437 14.1885 79.3747 14.0508 79.8362 13.7764C80.2978 13.502 80.6073 13.1201 80.7649 12.6318C80.855 12.5322 80.9357 12.4658 81.007 12.4316C81.0783 12.3975 81.1402 12.3799 81.1927 12.3799C81.2678 12.3799 81.3316 12.4102 81.3841 12.4717C81.4366 12.5322 81.4629 12.6357 81.4629 12.7803Q81.4629 13.3662 81.2969 13.9014Q81.1452 14.3896 80.855 14.835C80.4497 15.4561 79.8831 15.9541 79.1552 16.3281ZM75.1637 10.7422C75.153 10.5664 75.1476 10.3838 75.1476 10.1943C75.1476 9.47754 75.2002 8.91309 75.3052 8.50098Q75.4628 7.88281 75.7105 7.625C75.8756 7.4541 76.0595 7.36816 76.2621 7.36816Q76.2792 7.36816 76.2963 7.36914Q76.671 7.39746 76.9994 8.04297C77.2283 8.49316 77.3428 9.24121 77.3428 10.2861Q77.3428 10.5537 77.2096 10.6729Q77.1041 10.7666 76.915 10.7666L75.1651 10.7666L75.1637 10.7422ZM88.7519 16.5166C88.6581 16.6123 88.5211 16.6602 88.341 16.6602L82.7124 16.6602C82.5473 16.6602 82.4179 16.6143 82.3241 16.5225C82.2302 16.4307 82.1833 16.3047 82.1833 16.1445C82.1833 16.0225 82.2115 15.9219 82.2678 15.8418C82.3241 15.7617 82.401 15.6875 82.4985 15.6182L82.7575 15.5156C82.855 15.4697 82.9226 15.3975 82.9601 15.2979C82.9976 15.1992 83.0164 15.0352 83.0164 14.8057L83.0164 8.99316C83.0164 8.80957 82.9957 8.67871 82.9545 8.59766C82.9132 8.51758 82.8438 8.45508 82.7462 8.40918L82.4535 8.375C82.3484 8.31445 82.2715 8.24902 82.2227 8.18066C82.174 8.11133 82.1496 8.02441 82.1496 7.91699C82.1496 7.79492 82.1871 7.68652 82.2621 7.59082C82.3372 7.49609 82.4648 7.41406 82.6449 7.34473L85.8419 6.41797C86.0295 6.3418 86.1871 6.28809 86.3147 6.25781Q86.5061 6.21191 86.6412 6.21191C86.7687 6.21191 86.8644 6.25781 86.9282 6.34961L86.9487 6.38281C87.0014 6.47852 87.0377 6.63184 87.0577 6.8418L87.1434 8.62012L87.1629 8.55371C87.201 8.43066 87.2428 8.31152 87.2885 8.19727C87.5624 7.51465 87.9245 7.00781 88.3748 6.67578Q88.7961 6.36523 89.2657 6.24805Q89.5488 6.17773 89.8494 6.17773Q90.5212 6.17773 90.9762 6.49219Q91.1769 6.63086 91.3354 6.83008Q91.8532 7.48242 91.8532 8.80957C91.8532 9.6875 91.6731 10.332 91.3129 10.7441C90.9527 11.1553 90.4874 11.3613 89.917 11.3613C89.3616 11.3613 88.9508 11.2207 88.6843 10.9385C88.4179 10.6562 88.2772 10.2559 88.2622 9.73633L88.2509 9.2793C88.2434 9.10352 88.2097 8.96582 88.1496 8.86719C88.0896 8.76758 87.992 8.71875 87.8569 8.71875C87.7219 8.71875 87.6037 8.78906 87.5023 8.92969C87.401 9.07129 87.3241 9.28711 87.2716 9.57617C87.219 9.86621 87.1928 10.2363 87.1928 10.6865L87.1928 14.7148C87.1928 14.9277 87.2265 15.0977 87.2941 15.2236C87.3616 15.3496 87.4667 15.4277 87.6093 15.458L88.4536 15.6299C88.6112 15.6523 88.7237 15.7119 88.7913 15.8076C88.8588 15.9023 88.8926 16.0156 88.8926 16.1445C88.8926 16.2979 88.8457 16.4219 88.7519 16.5166ZM100.696 16.168C99.8514 16.6328 98.8702 16.8662 97.752 16.8662C96.6638 16.8662 95.7088 16.6387 94.887 16.1846C94.0653 15.7314 93.4255 15.1035 92.9677 14.3027C92.5099 13.502 92.281 12.5742 92.281 11.5215C92.281 10.5146 92.5211 9.60938 93.0015 8.80371Q93.2671 8.35938 93.6077 7.98145Q94.1909 7.33496 94.994 6.8877C95.842 6.41406 96.8176 6.17773 97.9208 6.17773Q99.5644 6.17773 100.791 6.86426C101.609 7.32227 102.247 7.95508 102.705 8.76367C103.163 9.57227 103.392 10.5068 103.392 11.5674C103.392 12.5742 103.154 13.4766 102.677 14.2734C102.2 15.0713 101.54 15.7021 100.696 16.168ZM98.6075 15.6758C98.3749 15.7217 98.1478 15.6182 97.9265 15.3672C97.7051 15.1152 97.4949 14.6914 97.2961 14.0967C97.0972 13.502 96.9077 12.7197 96.7276 11.751C96.555 10.7822 96.4574 9.98438 96.4349 9.35938Q96.4293 9.20312 96.4293 9.05859C96.4293 8.58008 96.4762 8.20703 96.57 7.94043Q96.7119 7.53613 96.981 7.41504Q97.0321 7.39258 97.0878 7.37988C97.3204 7.33398 97.5475 7.43652 97.7689 7.68848C97.9902 7.94043 98.2022 8.36328 98.4049 8.95898C98.6075 9.55371 98.7989 10.3359 98.979 11.3047C99.1591 12.2734 99.2585 13.0723 99.2773 13.7021C99.2799 13.7891 99.2812 13.874 99.2812 13.9551C99.2812 14.46 99.2311 14.8506 99.131 15.126C99.0146 15.4473 98.8401 15.6299 98.6075 15.6758ZM113.872 16.54C113.467 16.7725 112.949 16.8887 112.319 16.8887C111.561 16.8887 110.973 16.7266 110.557 16.4023L110.486 16.3447C110.255 16.1484 110.096 15.9268 110.01 15.6797L109.993 15.6279L109.978 15.6484Q109.566 16.1582 108.908 16.4707C108.322 16.749 107.692 16.8887 107.017 16.8887C106.116 16.8887 105.394 16.6484 104.85 16.168C104.305 15.6875 104.033 15.0732 104.033 14.3252C104.033 13.3418 104.429 12.5742 105.221 12.0254C106.013 11.4766 107.215 11.2012 108.829 11.2012L108.95 11.2031C109.189 11.208 109.398 11.2275 109.579 11.2627L109.639 11.2754L109.639 7.94043C109.639 7.67285 109.578 7.46191 109.454 7.30469C109.33 7.14844 109.163 7.07031 108.953 7.07031C108.758 7.07031 108.594 7.12988 108.463 7.24805Q108.418 7.28809 108.384 7.33594Q108.266 7.49805 108.266 7.74609L108.266 8.61523C108.266 9.17969 108.079 9.63965 107.703 9.99414C107.328 10.3486 106.814 10.5264 106.161 10.5264Q105.362 10.5264 104.94 10.1426C104.658 9.8877 104.518 9.51562 104.518 9.02734C104.518 8.56934 104.707 8.12109 105.086 7.68262C105.465 7.24414 106.032 6.88379 106.786 6.60156C107.54 6.31934 108.48 6.17773 109.606 6.17773C111.054 6.17773 112.118 6.4541 112.797 7.00781C113.476 7.56055 113.816 8.34082 113.816 9.34766L113.816 14.4053C113.816 14.5508 113.848 14.667 113.912 14.7549C113.975 14.8418 114.071 14.8857 114.199 14.8857C114.289 14.8857 114.373 14.8594 114.452 14.8057C114.531 14.7529 114.589 14.6572 114.626 14.5195C114.649 14.4893 114.675 14.4668 114.705 14.4512C114.735 14.4355 114.769 14.4287 114.807 14.4287Q114.856 14.4287 114.898 14.4463Q114.96 14.4746 115.004 14.543C115.052 14.6191 115.077 14.7148 115.077 14.8291C115.077 15.0957 114.977 15.3896 114.778 15.71C114.579 16.0303 114.277 16.3066 113.872 16.54ZM109.167 15.1035C108.867 15.1035 108.624 14.9795 108.441 14.7314C108.257 14.4834 108.165 14.1045 108.165 13.5928C108.165 13.0586 108.253 12.6543 108.429 12.3799C108.606 12.1055 108.84 11.9678 109.133 11.9678C109.306 11.9678 109.456 11.9854 109.583 12.0195L109.639 12.0371L109.639 14.9736L109.603 14.9941C109.483 15.0566 109.359 15.0928 109.231 15.1016L109.167 15.1035ZM123.328 15.9961Q122.259 16.9229 120.255 16.9229C119.805 16.9229 119.431 16.8809 119.135 16.7969C118.838 16.7129 118.598 16.6289 118.414 16.5449C118.231 16.4619 118.082 16.4199 117.97 16.4199C117.857 16.4199 117.709 16.4619 117.525 16.5449L116.974 16.7969C116.79 16.8809 116.634 16.9229 116.506 16.9229C116.394 16.9229 116.289 16.8848 116.191 16.8086C116.094 16.7324 116.019 16.5801 115.966 16.3506L115.617 14.0732C115.577 13.8994 115.556 13.7422 115.556 13.6016C115.556 13.5068 115.565 13.4209 115.583 13.3418C115.628 13.1426 115.73 13.0137 115.887 12.9521C116.052 12.876 116.216 12.8721 116.377 12.9404C116.538 13.0098 116.683 13.1318 116.81 13.3066C117.238 13.9707 117.625 14.4932 117.97 14.875Q118.488 15.4473 118.977 15.6816C119.304 15.8379 119.647 15.916 120.007 15.916C120.39 15.916 120.675 15.8242 120.863 15.6416C121.05 15.458 121.144 15.2256 121.144 14.9434C121.144 14.7295 121.09 14.5352 120.981 14.3594C120.872 14.1846 120.673 14.0225 120.384 13.873C120.096 13.7246 119.681 13.5781 119.141 13.4326C118.307 13.2197 117.617 12.9404 117.069 12.5977C116.521 12.2539 116.114 11.8418 115.848 11.3613C115.581 10.8809 115.448 10.3203 115.448 9.67969Q115.448 8.73145 115.855 8.01367Q115.915 7.9082 115.983 7.80859Q116.118 7.61133 116.277 7.43652Q116.752 6.91797 117.446 6.60156C118.065 6.31934 118.762 6.17773 119.535 6.17773Q120.232 6.17773 120.671 6.31543C120.964 6.40723 121.191 6.49805 121.353 6.58984C121.514 6.68164 121.636 6.72754 121.718 6.72754Q121.853 6.72754 122.118 6.5957C122.294 6.50781 122.473 6.42188 122.653 6.33789C122.833 6.25391 122.983 6.21191 123.103 6.21191Q123.232 6.21191 123.329 6.26758Q123.385 6.2998 123.429 6.34961C123.512 6.44141 123.568 6.59766 123.598 6.81836L123.891 8.92383C123.922 9.10254 123.937 9.25586 123.937 9.38672C123.937 9.47949 123.929 9.55957 123.914 9.62793C123.876 9.79199 123.778 9.89648 123.621 9.94238C123.493 9.97363 123.358 9.94824 123.216 9.86816C123.073 9.78809 122.93 9.66016 122.788 9.48535C122.24 8.65332 121.739 8.06641 121.285 7.72266C120.831 7.37988 120.349 7.20801 119.838 7.20801C119.471 7.20801 119.193 7.28809 119.005 7.44824C118.818 7.6084 118.724 7.81836 118.724 8.07715C118.724 8.25293 118.765 8.41699 118.848 8.56934C118.93 8.72168 119.082 8.86523 119.304 8.99902Q119.636 9.19922 120.244 9.39355Q121.876 9.89648 122.777 10.4629C123.377 10.8408 123.797 11.2734 124.037 11.7617C124.278 12.25 124.398 12.8184 124.398 13.4668Q124.398 14.5508 123.909 15.3252Q123.674 15.6963 123.328 15.9961ZM130.927 16.4941C130.431 16.7568 129.846 16.8887 129.171 16.8887C128.03 16.8887 127.172 16.6104 126.598 16.0537C126.024 15.4961 125.737 14.6191 125.737 13.4219L125.737 8.24902C125.737 8.08887 125.722 7.9668 125.692 7.88281C125.662 7.79883 125.587 7.73047 125.467 7.67676L124.938 7.50488C124.81 7.44434 124.728 7.37012 124.69 7.28223C124.653 7.19434 124.634 7.08594 124.634 6.95605C124.634 6.7959 124.69 6.66406 124.803 6.56152C124.915 6.45801 125.054 6.40723 125.219 6.40723L125.771 6.40723C125.839 6.40723 125.91 6.37988 125.985 6.32715C126.06 6.27344 126.161 6.16602 126.289 6.00586L128.371 4.25586C128.521 4.07227 128.672 3.93359 128.822 3.83789C128.972 3.74219 129.122 3.69434 129.272 3.69434Q129.469 3.69434 129.601 3.78711Q129.642 3.81641 129.677 3.85449L129.708 3.89258C129.785 4 129.824 4.15527 129.824 4.3584L129.823 6.40723L132.176 6.40723C132.341 6.40723 132.469 6.44336 132.559 6.51562C132.649 6.58789 132.694 6.7002 132.694 6.85352C132.694 7.06641 132.6 7.25 132.413 7.40234L132.371 7.43359C132.182 7.56543 131.895 7.63086 131.512 7.63086L129.823 7.63086L129.824 12.8496Q129.824 13.707 130.111 14.1191C130.302 14.3945 130.582 14.5312 130.949 14.5312C131.107 14.5312 131.253 14.4971 131.388 14.4287C131.523 14.3594 131.645 14.2705 131.754 14.1592C131.863 14.0488 131.966 13.9248 132.064 13.7871C132.161 13.6504 132.255 13.5127 132.345 13.376Q132.402 13.3525 132.452 13.3633Q132.501 13.373 132.542 13.416C132.592 13.4658 132.617 13.5625 132.617 13.7051Q132.617 13.7334 132.615 13.7646C132.563 14.3828 132.392 14.9258 132.103 15.3955C131.814 15.8643 131.422 16.2305 130.927 16.4941ZM140.822 16.3281C140.094 16.7021 139.253 16.8887 138.3 16.8887C137.249 16.8887 136.326 16.6689 135.531 16.2305C134.735 15.792 134.114 15.1777 133.668 14.3887Q133.659 14.3721 133.649 14.3555Q132.998 13.1826 132.998 11.6475C132.998 10.5566 133.214 9.60156 133.645 8.78125Q133.946 8.20996 134.372 7.75586Q134.863 7.23242 135.52 6.86426Q136.747 6.17773 138.469 6.17773C139.445 6.17773 140.285 6.37012 140.991 6.75586C141.696 7.14062 142.238 7.66406 142.617 8.32324C142.996 8.9834 143.186 9.71777 143.186 10.5264C143.186 10.877 143.092 11.1533 142.904 11.3555L142.86 11.4004C142.675 11.5732 142.419 11.6592 142.094 11.6592L136.948 11.6592L136.959 11.7119C137.095 12.3398 137.329 12.8438 137.659 13.2207C138.221 13.8662 138.972 14.1885 139.91 14.1885C140.51 14.1885 141.041 14.0508 141.503 13.7764C141.964 13.502 142.274 13.1201 142.432 12.6318C142.522 12.5322 142.602 12.4658 142.674 12.4316C142.745 12.3975 142.807 12.3799 142.859 12.3799C142.934 12.3799 142.998 12.4102 143.051 12.4717C143.103 12.5322 143.129 12.6357 143.129 12.7803Q143.129 13.3662 142.963 13.9014Q142.812 14.3896 142.522 14.835C142.116 15.4561 141.55 15.9541 140.822 16.3281ZM136.83 10.7422C136.82 10.5664 136.814 10.3838 136.814 10.1943C136.814 9.47754 136.867 8.91309 136.972 8.50098Q137.129 7.88281 137.377 7.625C137.542 7.4541 137.726 7.36816 137.929 7.36816Q137.946 7.36816 137.963 7.36914Q138.338 7.39746 138.666 8.04297Q139.009 8.71875 139.009 10.2861C139.009 10.6064 138.867 10.7666 138.582 10.7666L136.832 10.7666L136.83 10.7422ZM150.418 16.5166C150.325 16.6123 150.188 16.6602 150.008 16.6602L144.379 16.6602C144.214 16.6602 144.084 16.6143 143.991 16.5225C143.897 16.4307 143.85 16.3047 143.85 16.1445C143.85 16.0225 143.878 15.9219 143.934 15.8418C143.991 15.7617 144.068 15.6875 144.165 15.6182L144.424 15.5156C144.522 15.4697 144.589 15.3975 144.627 15.2979Q144.683 15.1494 144.683 14.8057L144.683 8.99316C144.683 8.80957 144.662 8.67871 144.621 8.59766Q144.615 8.58594 144.608 8.5752Q144.545 8.47168 144.413 8.40918L144.12 8.375C144.015 8.31445 143.938 8.24902 143.889 8.18066C143.841 8.11133 143.816 8.02441 143.816 7.91699C143.816 7.79492 143.854 7.68652 143.929 7.59082C144.004 7.49609 144.131 7.41406 144.311 7.34473L147.508 6.41797C147.696 6.3418 147.854 6.28809 147.981 6.25781C148.109 6.22754 148.218 6.21191 148.308 6.21191C148.435 6.21191 148.531 6.25781 148.595 6.34961L148.615 6.38281C148.668 6.47852 148.704 6.63184 148.724 6.8418L148.81 8.62012L148.829 8.55371C148.868 8.43066 148.909 8.31152 148.955 8.19727C149.229 7.51465 149.591 7.00781 150.041 6.67578Q150.463 6.36523 150.932 6.24805Q151.215 6.17773 151.516 6.17773Q152.188 6.17773 152.643 6.49219Q152.843 6.63086 153.002 6.83008Q153.52 7.48242 153.52 8.80957Q153.52 10.126 152.979 10.7441C152.619 11.1553 152.154 11.3613 151.584 11.3613C151.028 11.3613 150.617 11.2207 150.351 10.9385C150.085 10.6562 149.944 10.2559 149.929 9.73633L149.918 9.2793C149.91 9.10352 149.876 8.96582 149.816 8.86719C149.756 8.76758 149.659 8.71875 149.524 8.71875C149.388 8.71875 149.27 8.78906 149.169 8.92969C149.068 9.07129 148.991 9.28711 148.938 9.57617C148.886 9.86621 148.859 10.2363 148.859 10.6865L148.859 14.7148C148.859 14.9277 148.893 15.0977 148.961 15.2236C149.028 15.3496 149.133 15.4277 149.276 15.458L150.12 15.6299C150.278 15.6523 150.39 15.7119 150.458 15.8076C150.525 15.9023 150.559 16.0156 150.559 16.1445C150.559 16.2979 150.512 16.4219 150.418 16.5166ZM161.861 15.9961Q160.792 16.9229 158.788 16.9229C158.338 16.9229 157.965 16.8809 157.668 16.7969C157.372 16.7129 157.131 16.6289 156.948 16.5449C156.764 16.4619 156.616 16.4199 156.503 16.4199C156.39 16.4199 156.242 16.4619 156.058 16.5449L155.507 16.7969C155.323 16.8809 155.167 16.9229 155.04 16.9229C154.927 16.9229 154.822 16.8848 154.724 16.8086C154.627 16.7324 154.552 16.5801 154.499 16.3506L154.15 14.0732C154.11 13.8994 154.089 13.7422 154.089 13.6016C154.089 13.5068 154.098 13.4209 154.116 13.3418C154.161 13.1426 154.263 13.0137 154.42 12.9521C154.585 12.876 154.749 12.8721 154.91 12.9404C155.071 13.0098 155.216 13.1318 155.343 13.3066C155.771 13.9707 156.158 14.4932 156.503 14.875C156.848 15.2559 157.184 15.5254 157.51 15.6816C157.837 15.8379 158.18 15.916 158.54 15.916C158.923 15.916 159.208 15.8242 159.396 15.6416C159.584 15.458 159.677 15.2256 159.677 14.9434C159.677 14.7295 159.623 14.5352 159.514 14.3594C159.405 14.1846 159.207 14.0225 158.918 13.873C158.629 13.7246 158.214 13.5781 157.674 13.4326C156.841 13.2197 156.15 12.9404 155.602 12.5977Q154.781 12.083 154.381 11.3613C154.115 10.8809 153.981 10.3203 153.981 9.67969Q153.981 8.73145 154.388 8.01367Q154.448 7.9082 154.516 7.80859Q154.651 7.61133 154.811 7.43652Q155.285 6.91797 155.979 6.60156C156.599 6.31934 157.295 6.17773 158.068 6.17773C158.533 6.17773 158.912 6.22363 159.205 6.31543C159.497 6.40723 159.724 6.49805 159.886 6.58984C160.047 6.68164 160.169 6.72754 160.252 6.72754C160.342 6.72754 160.475 6.68359 160.651 6.5957C160.828 6.50781 161.006 6.42188 161.186 6.33789C161.366 6.25391 161.516 6.21191 161.636 6.21191C161.771 6.21191 161.88 6.25781 161.963 6.34961C162.045 6.44141 162.102 6.59766 162.132 6.81836L162.424 8.92383C162.455 9.10254 162.47 9.25586 162.47 9.38574C162.47 9.47949 162.462 9.55957 162.447 9.62793C162.409 9.79199 162.312 9.89648 162.154 9.94238C162.026 9.97363 161.891 9.94824 161.749 9.86816C161.606 9.78809 161.464 9.66016 161.321 9.48535C160.773 8.65332 160.272 8.06641 159.818 7.72266Q159.299 7.33008 158.73 7.23633Q158.553 7.20801 158.372 7.20801Q157.82 7.20801 157.539 7.44824C157.351 7.6084 157.257 7.81836 157.257 8.07715Q157.257 8.22168 157.294 8.35547Q157.325 8.46582 157.381 8.56934C157.464 8.72168 157.616 8.86523 157.837 8.99902C158.058 9.13184 158.372 9.26367 158.777 9.39355C159.865 9.72949 160.709 10.0859 161.31 10.4629C161.91 10.8408 162.33 11.2734 162.571 11.7617C162.811 12.25 162.931 12.8184 162.931 13.4668Q162.931 14.5508 162.442 15.3252Q162.208 15.6963 161.861 15.9961Z" clip-rule="evenodd" fill="#333D4B" fill-opacity="1.000000" fill-rule="evenodd"/>
	<path id="Combined Shape" d="M9.93825 3.0791C7.51092 0.647461 3.91291 0.297852 1.91759 2.2998C-0.0787716 4.30078 0.270357 7.90723 2.69355 10.3398C3.34001 10.9883 4.08488 11.4834 4.8712 11.8379C5.12917 10.3359 5.86887 8.8916 6.99188 7.70508C6.61996 7.57227 6.23872 7.45996 5.8409 7.35156C3.48505 6.70312 2.31437 4.7334 2.04087 2.42383C2.70598 3.22559 3.196 4.14258 4.0103 4.81445C4.87846 5.53027 5.83468 5.79004 6.88414 6.0957C7.35966 6.2334 7.77303 6.43848 8.1522 6.67676C9.14882 5.94727 10.2729 5.46094 11.4332 5.26074C11.0799 4.47266 10.5847 3.72656 9.93825 3.0791ZM5.83364 12.415C5.988 10.9102 6.71527 9.43945 7.88076 8.27051C10.3081 5.83984 13.9061 5.48828 15.9014 7.49219C17.8978 9.49316 17.5497 13.0996 15.1234 15.5322C13.9579 16.7002 12.4899 17.4287 10.9887 17.585C10.7888 17.6045 10.5909 17.6152 10.3972 17.6152C9.10634 17.6152 7.95328 17.1611 7.10377 16.3096C6.12579 15.3301 5.6741 13.9473 5.83364 12.415ZM11.9771 12.5439C11.0405 12.8008 10.1796 13.042 9.38399 13.6504C8.47439 14.3467 7.94603 15.3193 7.22601 16.1865C7.48916 13.9131 8.62875 11.96 10.9338 11.2891C11.9843 10.9834 12.9395 10.7227 13.8077 10.0068C14.623 9.33496 15.113 8.41895 15.7771 7.61621C15.5026 9.92578 14.3329 11.8965 11.9771 12.5439Z" clip-rule="evenodd" fill="#0E8784" fill-opacity="1.000000" fill-rule="evenodd"/>
</svg>
