<svg width="40.841858" height="49.072266" viewBox="0 0 40.8419 49.0723" fill="none" xmlns="http://www.w3.org/2000/svg" xmlns:xlink="http://www.w3.org/1999/xlink">
	<desc>
			Created with Pixso.
	</desc>
	<defs/>
	<path id="Combined Shape" d="M5.55963 5.89648C5.65129 5.95703 5.72629 5.98828 5.81519 6.04883C5.89574 6.16797 5.90962 6.30078 5.90129 6.43164C5.90129 6.43945 5.90685 6.45508 5.90685 6.46289C5.89438 6.59961 5.85075 6.74023 5.80844 6.87695C5.7188 7.16602 5.63498 7.43555 5.86517 7.61523C6.04076 7.75391 6.21805 7.88672 6.39343 8.01953C8.09647 9.31055 9.61864 10.4648 7.62907 13.209C7.03137 14.0352 7.85844 14.043 8.59779 14.0508C9.04048 14.0547 9.45171 14.0586 9.50685 14.2383C9.46904 15.3672 8.64967 15.7012 7.93752 15.9902C7.23708 16.2754 6.64035 16.5176 6.99295 17.4355C7.48714 18.7207 8.06454 18.1621 8.64955 17.5938C8.91951 17.332 9.19109 17.0684 9.45685 16.9844C9.52629 16.9648 9.87074 17.3848 9.84573 17.5605C9.42372 20.3242 10.4978 19.9238 11.6679 19.4863C12.2846 19.2559 12.928 19.0156 13.393 19.2246C11.1068 22.541 12.2541 23.4453 15.9096 22.9648C19.2834 22.5215 19.9425 25.4551 20.4035 27.5078C20.4701 27.8047 20.5326 28.082 20.5985 28.3301C21.4096 31.3828 18.4568 31.0215 16.368 30.752C15.6624 30.6621 14.4402 30.8066 14.8124 31.3184C15.1022 31.7148 14.8526 32.1621 14.6194 32.5801C14.2962 33.1602 14.0047 33.6836 15.2263 33.9355C17.4485 34.3965 16.7707 35.5371 15.7902 36.6016C14.0513 38.4961 14.3624 40.1328 16.693 40.9746C17.468 41.2578 18.218 41.5957 20.0096 42.3398C16.5451 42.1934 14.9339 43.9902 13.34 45.7656C12.272 46.957 11.2117 48.1387 9.60684 48.7207C10.9603 49.2656 11.8501 49.0625 12.6821 48.873C12.9123 48.8203 13.138 48.7695 13.368 48.7344C14.938 48.5078 16.4069 47.9707 17.8815 47.4316C19.9134 46.6895 21.9563 45.9453 24.2902 45.9961C28.6624 46.084 33.1541 45.6348 37.418 44.3105C38.2541 44.0508 39.4624 43.5273 39.4513 42.3984C39.4374 41.043 37.3791 42.3379 37.0652 40.9688C37.3957 40.5742 37.6152 40.1934 37.9485 39.9648C39.6513 38.7871 41.243 37.3672 40.7513 35.1367C40.2402 32.7988 38.0707 32.8203 36.2374 32.9922C35.1618 33.084 35.1187 32.7559 35.032 32.0938C35.0162 31.9727 34.9989 31.8418 34.9735 31.6992C33.9374 25.8047 27.6791 23.123 26.0902 17.4922C25.9318 16.9297 25.1263 16.373 24.5013 16.1523C22.018 15.2676 21.9846 13.9746 23.4985 12.0801C24.2791 11.0957 24.6846 9.82617 25.3957 8.77734C26.8402 6.65625 26.3957 5.70508 23.7763 5.78125C22.3753 5.82422 20.9744 5.81445 19.4689 5.80469L19.4689 5.80469L19.4688 5.80469C18.7833 5.80078 18.0761 5.79688 17.3374 5.79688C17.8735 3.66016 19.3596 3.23242 20.2791 2.26758C21.0707 1.44922 21.6541 -0.253906 19.8263 0.03125C19.0686 0.152344 18.2487 0.166016 17.4196 0.177734C14.8292 0.216797 12.1508 0.257812 11.0124 3.60156C10.8874 3.95898 10.7596 4.29688 10.6263 4.60742C9.6624 6.76562 8.28462 7.5957 5.82074 6.04883C5.76796 5.96875 5.76518 5.89258 5.66795 5.82422C5.64574 5.83203 5.62074 5.83789 5.59851 5.8457C5.59018 5.86523 5.57629 5.88281 5.56796 5.89648L5.55963 5.89648ZM7.85684 0.878906C5.23184 1.58008 3.71796 2.97461 3.90407 5.79297C2.14569 5.9668 2.65575 6.68164 3.12585 7.33984C3.19936 7.44336 3.2719 7.54492 3.33463 7.64258C3.55684 7.13672 4.04851 6.68164 4.40129 6.1543C4.79851 6.05078 5.19852 5.94336 5.59573 5.84375C5.83252 5.32031 6.23959 4.87891 6.6525 4.43164C7.49417 3.51953 8.36 2.58008 7.85684 0.878906ZM3.33185 7.64258C3.54851 7.98438 3.6624 8.2793 3.24017 8.42578C3.15962 8.13281 3.22351 7.88281 3.33185 7.64258ZM1.14296 26.1875C0.581848 26.0957 -0.0570374 25.5078 0.0040741 24.6602C0.126297 23.1035 4.86795 19.9355 6.97351 20.0605C9.69852 20.209 9.82907 22.752 10.9068 24.1035C10.8152 25.9375 9.70685 26.9746 8.51518 26.9785C6.17519 27.0078 3.81754 26.623 1.48787 26.2441C1.37283 26.2246 1.25786 26.207 1.14296 26.1875Z" clip-rule="evenodd" fill="#0E8784" fill-opacity="1.000000" fill-rule="evenodd"/>
</svg>
